<svg width="470" height="437" viewBox="0 0 470 437" fill="none" xmlns="http://www.w3.org/2000/svg">
<g clip-path="url(#clip0_115_2)">
<path fill-rule="evenodd" clip-rule="evenodd" d="M22.238 318.967C12.6217 318.967 5.20933 316.107 0 310.386L10.2399 300.844C14.5395 304.987 19.6479 307.058 25.5655 307.058C29.5597 307.058 31.8361 305.874 32.3943 303.507L32.4291 303.359C32.6967 302.225 32.3172 301.325 31.2911 300.659C30.2645 299.994 28.1053 299.217 24.8137 298.329C21.832 297.59 19.4116 296.875 17.5529 296.184C15.6937 295.494 13.9208 294.544 12.2332 293.336C10.5456 292.128 9.45147 290.599 8.95067 288.75C8.44987 286.901 8.5024 284.694 9.10747 282.13L9.14228 281.982C10.3056 277.051 13.0601 273.056 17.4063 269.999C21.7516 266.941 26.982 265.413 33.0969 265.413C41.5785 265.413 48.1387 267.706 52.7769 272.292L43.2114 282.426C39.3789 279.023 34.9475 277.322 29.9176 277.322C26.4657 277.322 24.4777 278.431 23.9543 280.651L23.9195 280.799C23.6401 281.982 24.0325 282.931 25.0968 283.647C26.1612 284.361 28.3812 285.089 31.7571 285.828C37.8796 287.259 42.2491 289.169 44.8656 291.561C47.4823 293.953 48.2555 297.417 47.1852 301.954L47.15 302.102C45.9167 307.329 43.047 311.446 38.5403 314.455C34.0335 317.463 28.5993 318.967 22.238 318.967ZM64.4916 318.893C60.1028 318.893 57.0217 317.845 55.2476 315.749C53.4735 313.653 53.1333 310.288 54.2268 305.652L58.0835 289.305H53.3496L56.002 278.061H60.7359L63.1264 267.928H77.1069L74.7164 278.061H84.0363L81.3839 289.305H72.0639L68.8532 302.915C68.2247 305.578 69.1925 306.91 71.7569 306.91C73.4336 306.91 75.3135 306.466 77.3968 305.578L74.8143 316.526C71.5325 318.104 68.0916 318.893 64.4916 318.893ZM117.01 312.938C111.809 317.007 106.052 319.041 99.7403 319.041C93.4284 319.041 88.6632 317.031 85.4441 313.012C82.2255 308.993 81.3021 304.074 82.6749 298.255L82.7101 298.107C84.0829 292.288 87.357 287.345 92.5336 283.277C97.7092 279.208 103.453 277.174 109.766 277.174C116.078 277.174 120.852 279.196 124.09 283.239C127.328 287.283 128.266 292.19 126.905 297.96L126.87 298.107C125.497 303.926 122.21 308.87 117.01 312.938ZM102.698 307.132C105.213 307.132 107.45 306.269 109.411 304.543C111.372 302.817 112.643 300.721 113.224 298.255L113.26 298.107C113.853 295.592 113.545 293.447 112.337 291.672C111.128 289.897 109.291 289.009 106.825 289.009C104.31 289.009 102.085 289.872 100.149 291.598C98.2129 293.324 96.9486 295.444 96.3553 297.96L96.3205 298.107C95.7384 300.573 96.0521 302.693 97.2608 304.469C98.4692 306.244 100.282 307.132 102.698 307.132ZM128.445 318.079L141.184 264.081H155.164L142.425 318.079H128.445ZM160.71 274.437L163.153 264.081H177.725L175.282 274.437H160.71ZM150.71 318.079L160.151 278.061H174.131L164.69 318.079H150.71ZM191.759 319.041C185.791 319.041 181.291 317.007 178.256 312.938C175.222 308.87 174.379 303.975 175.728 298.255L175.764 298.107C177.125 292.338 180.295 287.419 185.274 283.351C190.252 279.282 195.848 277.248 202.062 277.248C209.607 277.248 214.604 280.207 217.055 286.124L205.911 293.225C204.404 290.415 202.246 289.009 199.435 289.009C197.167 289.009 195.077 289.872 193.166 291.598C191.254 293.324 190.002 295.444 189.409 297.96L189.374 298.107C188.769 300.672 189.012 302.829 190.103 304.58C191.194 306.331 192.899 307.206 195.217 307.206C198.077 307.206 200.966 305.825 203.886 303.063L211.675 309.869C206.09 315.983 199.451 319.041 191.759 319.041ZM225.95 318.967C222.005 318.967 219.046 317.869 217.073 315.675C215.101 313.481 214.568 310.46 215.476 306.614L215.511 306.466C216.476 302.373 218.617 299.254 221.934 297.109C225.251 294.964 229.326 293.891 234.159 293.891C237.907 293.891 240.989 294.409 243.408 295.444L243.565 294.779C244.601 290.39 242.455 288.196 237.129 288.196C233.53 288.196 229.657 288.935 225.51 290.415L224.947 280.577C230.465 278.506 236.109 277.47 241.879 277.47C248.783 277.47 253.479 279.097 255.965 282.352C258.162 285.163 258.591 289.403 257.254 295.075L251.827 318.079H237.994L238.989 313.863C234.932 317.265 230.585 318.967 225.95 318.967ZM233.057 310.164C235.128 310.164 236.956 309.573 238.542 308.389C240.129 307.205 241.16 305.603 241.637 303.581L242.073 301.732C240.51 301.041 238.742 300.696 236.77 300.696C234.698 300.696 233.003 301.14 231.684 302.028C230.366 302.915 229.525 304.124 229.165 305.652L229.13 305.8C228.816 307.132 229.022 308.192 229.748 308.981C230.474 309.77 231.577 310.164 233.057 310.164Z" fill="#E81A03"/>
<path fill-rule="evenodd" clip-rule="evenodd" d="M347.462 340.022C345.998 343.106 344.446 346.205 342.417 348.908C337.282 355.793 330.594 360.925 323.271 365.386C317.677 368.807 311.74 370.288 305.272 370.097C298.996 369.937 293.062 368.962 288.616 363.758C284.93 366.111 281.463 368.334 277.995 370.557C277.85 370.638 277.717 370.79 277.657 370.947C277.632 371.105 277.693 371.302 277.711 371.619C278.051 371.884 278.417 372.292 278.867 372.474C286.471 375.315 293.954 378.452 302.219 379.068C304.452 379.235 306.768 380.201 308.796 381.292C310.96 382.463 311.019 385.113 309.221 386.77C308.573 387.371 307.821 387.933 307.072 388.424C296.056 395.717 284.062 400.365 270.832 401.577C259.392 402.615 250.061 398.326 242.44 389.976C241.855 389.328 241.122 388.814 240.478 388.27C235.816 389.726 231.35 391.104 226.898 392.57C222.535 394.008 217.913 394.602 212.867 396.655C215.758 398.091 218 399.142 220.183 400.294C228.446 404.741 236.669 409.275 245.81 411.754C247.638 412.254 249.335 413.558 250.828 414.782C252.487 416.155 252.019 418.744 250.115 419.758C249.333 420.195 248.454 420.469 247.595 420.706C245.859 421.165 244.09 421.586 242.34 421.974C230.985 424.465 219.547 425.522 207.963 424.206C200.048 423.326 192.94 420.456 186.561 415.752C181.677 412.165 177.343 408.203 177.022 401.726C176.379 401.516 176.035 401.321 175.683 401.339C166.876 401.295 158.052 401.251 149.208 401.274C148.803 401.256 148.374 401.709 147.846 402.001C150.189 404.52 152.49 406.809 154.551 409.314C159.836 415.729 165.201 421.987 172.103 426.803C173.655 427.889 174.924 429.632 175.952 431.29C177.403 433.642 176.092 436.152 173.409 436.492C172.165 436.657 170.896 436.628 169.624 436.634C157.557 436.511 146.06 433.859 134.973 429.072C125.853 425.113 119.814 418.254 115.599 409.549C114.081 406.418 113.317 403.112 113.707 399.584C113.829 398.603 114.692 397.587 113.957 396.791C104.743 394.008 95.7729 391.308 86.8016 388.624C86.4359 388.535 85.9431 388.845 85.3885 389.01C86.196 390.482 86.8897 391.736 87.5847 392.988C92.5628 401.963 96.6131 411.473 103.576 419.278C104.811 420.665 105.426 422.779 105.876 424.673C106.405 426.765 104.586 428.526 102.408 428.291C101.335 428.219 100.271 427.97 99.2256 427.706C87.0221 424.38 76.1059 418.633 66.4837 410.41C59.7521 404.647 55.9251 397.319 53.9039 388.85C52.6984 383.793 52.3144 378.865 55.5737 374.143C54.0545 373.146 52.7591 372.234 51.424 371.407C42.6649 365.963 34.3404 359.96 26.5281 353.241C17.3788 345.413 8.94799 337.003 1.39893 327.88L13.0023 328.473C17.8121 333.484 22.7892 338.328 27.9323 343.039C33.2617 347.919 38.9496 352.322 45.1283 356.097C46.1551 356.734 47.3153 357.162 48.1959 357.579C50.9507 354.772 53.3492 352.07 56.0132 349.664C58.6788 347.241 61.6437 345.169 65.2415 344.221C77.086 341.103 89.0716 340.41 101.184 342.051C102.237 342.195 103.322 342.373 104.345 342.744C105.938 343.337 106.742 345.213 106.011 346.764C105.573 347.714 104.942 348.688 104.165 349.371C102.539 350.789 100.763 352.04 99.0036 353.29C96.6597 354.972 94.1317 356.415 91.9719 358.28C86.7832 362.728 81.8113 367.451 75.9269 371.035C75.7817 371.098 75.7545 371.308 75.6752 371.463C79.2459 374.135 89.803 378.257 96.5654 379.608C96.7104 379.528 96.8891 379.484 96.9839 379.365C97.5491 378.653 98.064 377.919 98.6278 377.225C104.794 369.879 112.059 364.161 121.491 361.624C125.337 360.603 129.122 359.438 132.993 358.629C139.721 357.208 146.555 356.462 153.441 356.796C156.909 356.973 158.348 359.553 156.456 362.369C155.064 364.399 153.138 366.137 151.304 367.843C147.893 371.041 144.33 374.088 140.887 377.23C138.089 379.807 135.378 382.44 132.614 385.034C132.04 385.586 131.498 386.16 130.81 386.865C135.866 388.43 146.231 389.402 152.432 388.96C153.718 386.59 154.697 384.01 156.306 381.903C161.91 374.475 168.682 368.378 177.022 364.056C184.619 360.155 192.616 357.387 200.738 354.905C204.683 353.696 208.769 352.81 212.832 352.065C215.755 351.544 217.292 353.582 216.374 356.341C215.463 358.996 213.545 360.927 211.697 362.898C208.115 366.686 204.564 370.529 200.997 374.354C197.577 378.063 194.157 381.772 190.772 385.499C190.268 386.039 190.051 386.823 189.484 387.887C199.358 386.75 208.575 385.297 217.362 382.94C217.589 379.544 217.222 376.366 218.071 373.55C220.813 364.441 225.346 356.269 232.591 349.897C240.667 342.79 249.901 337.578 259.817 333.513C261.801 332.697 263.914 332.098 266.019 331.677C268.588 331.136 270.166 332.736 269.944 335.353C269.668 338.323 268.132 340.769 266.678 343.29C264.241 347.49 261.885 351.765 259.584 356.042C257.187 360.473 254.872 364.98 252.561 369.47C252.268 370.001 251.585 370.603 252.416 371.263C256.872 370.432 269.596 364.585 274.021 361.264C273.36 357.629 273.919 353.916 275.215 350.328C278.477 341.421 283.038 333.357 290.066 326.745C296.814 320.417 304.187 314.986 312.027 310.126C313.084 309.475 314.241 308.934 315.426 308.535C317.402 307.86 319.244 309.118 319.048 311.226C318.871 313.318 318.405 315.519 317.652 317.474C314.469 325.538 311.114 333.505 307.828 341.526C307.505 342.305 306.932 343.14 307.886 344.195C312.657 342.339 317.773 341.382 322.939 340.799C328.868 340.149 334.694 339.086 340.279 336.883C341.738 336.322 343.46 336.127 345.009 336.208C347.158 336.3 348.353 338.107 347.462 340.022Z" fill="#E81A03"/>
<path fill-rule="evenodd" clip-rule="evenodd" d="M340.458 326.685C343.923 325.598 346.762 323.306 349.146 320.365C352.079 316.747 354.435 312.77 356.419 308.574C360.642 299.645 363.416 290.258 365.114 280.542C365.209 279.995 365.265 279.442 365.354 278.894C365.603 277.354 365.562 275.921 363.982 275.033C362.456 274.177 361.059 274.765 359.826 275.602C358.768 276.322 357.723 277.181 356.971 278.2C353.19 283.313 348.423 287.42 343.583 291.439C336.046 297.702 330.394 305.401 326.013 314.092C325.349 315.409 324.725 316.773 324.313 318.185C322.613 323.993 325.552 328.109 331.62 328.441C334.627 328.605 337.511 327.97 340.458 326.685Z" fill="#E81A03"/>
<path fill-rule="evenodd" clip-rule="evenodd" d="M399.988 243.689C398.544 244.961 398.575 246.879 398.156 248.581C394.907 261.752 390.731 274.606 385.124 286.972C379.958 298.367 373.679 309.066 365.357 318.495C364.065 319.96 363.026 321.693 362.101 323.427C361.501 324.548 361.427 325.901 362.523 326.93C363.555 327.898 364.921 328.089 366.05 327.48C368.254 326.292 370.503 325.05 372.37 323.415C374.246 321.774 375.897 319.771 377.257 317.67C379.605 314.044 381.908 310.344 383.781 306.459C392.377 288.631 398.23 269.913 401.491 250.391C401.788 248.622 401.955 246.815 401.968 245.023C401.975 243.971 401.134 243.539 399.988 243.689Z" fill="#E81A03"/>
<path fill-rule="evenodd" clip-rule="evenodd" d="M326.973 291.683C327.714 293.718 329.624 294.632 331.106 293.788C332.324 293.093 333.513 292.161 334.378 291.068C336.384 288.533 338.339 285.934 340.045 283.192C349.86 267.413 355.965 250.21 359.387 232.007C359.612 230.806 359.547 229.541 359.518 228.309C359.512 228.088 359.04 227.765 358.737 227.695C358.445 227.626 357.895 227.723 357.796 227.917C357.158 229.193 356.531 230.485 356.05 231.824C351.848 243.523 346.95 254.92 341.346 266.013C337.611 273.407 333.564 280.617 328.604 287.28C328.071 287.997 327.472 288.726 327.188 289.549C326.913 290.343 327.005 291.265 326.973 291.683Z" fill="#E81A03"/>
<path fill-rule="evenodd" clip-rule="evenodd" d="M369.01 262.754C369.713 264.591 371.477 265.442 372.758 264.682C373.791 264.07 374.847 263.185 375.42 262.156C377.525 258.386 379.716 254.623 381.368 250.645C388.074 234.503 391.406 217.589 392.343 200.179C392.427 198.603 392.112 196.998 391.898 195.417C391.868 195.198 391.365 194.92 391.064 194.894C390.767 194.871 390.274 195.057 390.171 195.289C389.81 196.093 389.463 196.935 389.322 197.798C388.855 200.642 388.518 203.507 388.06 206.353C385.202 224.129 379.977 241.088 370.697 256.65C370.056 257.724 369.469 258.879 369.145 260.074C368.875 261.063 369.028 262.168 369.01 262.754Z" fill="#E81A03"/>
<path fill-rule="evenodd" clip-rule="evenodd" d="M461 178.708C452.152 180.63 443.053 179.942 434.295 182.407C429.055 183.875 425.847 186.922 423.399 191.4C420.806 196.076 418.938 200.918 417.688 205.903H416.799C414.823 174.286 401.987 130.644 356.789 87.0964C365.371 96.1872 381.814 118.514 383.154 157.176C383.359 163.051 382.254 168.9 379.986 174.323C372.431 192.391 361.556 205.903 361.556 205.903C366.251 191.255 367.956 177.239 367.956 164.639C367.956 135.087 358.6 113.258 356.625 108.943C356.479 108.653 356.352 108.382 356.226 108.127L354.431 104.719C345.674 88.9087 332.928 76.6712 317.518 67.5339C303.883 59.4299 288.745 54.6964 272.918 52.0136C261.114 50.0017 249.347 50.1457 237.527 50.3472C220.847 50.6352 204.694 54.3351 188.81 58.9752C170.408 64.3605 153.022 72.2469 136.469 81.8923C121.872 90.3967 108.131 100.169 95.7297 111.735C93.4412 113.881 91.0991 115.98 88.7603 118.084L88.9269 118.082C76.9247 131.876 68.4767 146.916 64.3449 162.241H30.1909C31.9056 155.999 36.3413 149.705 37.1365 143.285C37.7249 138.553 32.3143 135.631 28.6371 133.451C21.7932 129.413 20.4167 127.231 24.2573 121.217C30.4948 112.491 39.5555 104.941 46.9765 97.0139C50.6219 92.5709 55.1724 91.43 60.0669 93.6232C67.7537 97.0687 74.1909 95.5084 80.8256 90.8672C87.1899 86.4432 93.0459 81.5484 98.5217 76.1271C101.912 72.7739 101.983 69.1111 100.443 65.1233C97.5057 57.5616 97.9404 56.4564 104.994 52.5204C116.524 46.1217 127.966 39.5952 139.442 33.1405C144.427 30.3112 146.694 30.9099 149.631 35.8417C153.855 42.8952 154.924 43.094 162.938 41.0273C169.139 39.4123 175.031 37.1109 180.942 34.7177C188.194 31.7617 193.215 26.7936 194.304 18.9443C195.264 12.0179 199.652 9.6432 205.654 8.48333C218.127 6.05387 230.564 3.5136 243.021 1.01387C246.175 0.379199 248.314 2.3192 248.134 5.8724C247.951 8.8272 247.479 11.7457 247.299 14.7017C247.154 17.0405 248.079 18.4911 250.616 19.1616C261.078 21.8817 271.448 21.4471 281.674 18.1456C285.771 16.8232 288.327 13.3245 291.066 10.2056C292.443 8.64587 293.677 6.97787 294.927 5.32853C298.554 0.632399 303.014 -0.890268 308.978 0.486932C320.363 3.09787 331.84 5.1656 343.299 7.41253C348.122 8.37373 349.101 10.3137 346.416 14.4485C344.314 17.6751 341.775 20.6125 339.636 23.8032C336.192 28.9151 336.59 31.382 341.305 35.2257C347.378 40.1565 354.395 43.0751 362.029 44.6885C369.787 46.3391 375.607 41.9884 381.845 38.5979C385.67 36.5123 388.915 33.3405 393.683 32.9217C397.146 32.6152 399.81 33.5937 402.205 35.7684C411.396 44.1457 420.607 52.5204 429.726 61.0071C433.315 64.3432 433.262 66.2644 429.055 69.1284C423.454 72.9552 417.379 76.1271 411.704 79.862C405.523 83.9231 404.651 87.1496 406.61 94.2937C408.477 101.147 411.633 107.238 416.11 112.714C419.028 116.269 422.655 117.918 427.315 118.008C434.475 118.135 441.511 116.992 448.599 116.504C450.359 116.395 452.137 116.086 453.913 116.141C460.585 116.269 462.67 118.39 463.576 125.098C465.462 139.167 467.437 153.218 469.523 167.25C470.646 174.829 468.452 177.095 461 178.708Z" fill="#4A5157"/>
<path fill-rule="evenodd" clip-rule="evenodd" d="M138.003 123.512H123.849L127.739 107.866H173.848L169.958 123.512H155.884L145.537 165.813H127.655L138.003 123.512Z" fill="#4A5157"/>
<path fill-rule="evenodd" clip-rule="evenodd" d="M173.183 120.614H190.485L188.497 129.058C192.058 123.097 196.527 119.622 202.571 119.952L197.851 139.075H196.445C188.827 139.075 185.02 143.131 182.786 151.823L179.557 165.813H162.173L173.183 120.614Z" fill="#4A5157"/>
<path fill-rule="evenodd" clip-rule="evenodd" d="M197.353 155.051C197.353 152.982 197.601 150.913 198.263 148.346L204.886 120.614H222.27L216.31 145.283C216.063 146.69 215.896 147.683 215.896 148.428C215.896 150.333 216.806 151.575 219.041 151.575C221.938 151.575 223.511 149.587 224.424 145.863L230.548 120.614H247.851L236.922 165.813H219.538L220.862 160.433C218.131 163.826 213.828 166.889 208.529 166.889C201.244 166.889 197.353 162.253 197.353 155.051Z" fill="#4A5157"/>
<path fill-rule="evenodd" clip-rule="evenodd" d="M245.529 147.932C245.529 140.895 247.929 132.618 253.889 126.657C258.525 122.022 264.153 119.622 270.859 119.622C279.469 119.622 285.346 124.258 287.913 130.631L275.744 138.743C274.501 136.012 273.011 134.356 270.611 134.356C268.954 134.356 267.465 135.018 266.058 136.426C263.74 138.743 262.415 142.883 262.415 146.277C262.415 150.498 264.486 152.236 267.135 152.236C269.451 152.236 271.273 151.078 273.261 149.091L282.448 159.025C278.558 163.66 272.847 166.972 264.899 166.972C253.641 166.972 245.529 159.853 245.529 147.932Z" fill="#4A5157"/>
<path fill-rule="evenodd" clip-rule="evenodd" d="M296.851 105.796H314.235L307.447 133.28L317.712 120.614H337.083L320.195 140.068L326.239 165.813H308.358L305.957 152.072L301.734 156.624L299.583 165.813H282.199L296.851 105.796Z" fill="#4A5157"/>
<path fill-rule="evenodd" clip-rule="evenodd" d="M48.1987 187.147H65.5005L64.2579 192.528C66.9903 189.134 71.2117 186.071 76.5103 186.071C83.7944 186.071 87.6859 190.706 87.6859 197.909C87.6859 199.978 87.4365 202.214 86.8581 204.614L80.1513 232.345H62.768L68.7285 207.677C69.0596 206.435 69.2253 205.442 69.2253 204.532C69.2253 202.627 68.3147 201.385 66.0797 201.385C63.1808 201.385 61.6081 203.373 60.6159 207.097L54.5723 232.345H37.1889L48.1987 187.147Z" fill="#E81A03"/>
<path fill-rule="evenodd" clip-rule="evenodd" d="M114.503 217.114C116.82 214.797 118.229 209.746 118.229 206.353C118.229 202.793 116.738 200.64 113.758 200.64C112.185 200.64 110.778 201.219 109.536 202.462C107.218 204.78 105.811 209.746 105.811 213.225C105.811 216.784 107.301 218.935 110.364 218.935C111.937 218.935 113.261 218.356 114.503 217.114ZM112.765 227.627C109.536 231.021 105.562 233.423 101.011 233.423C93.8073 233.423 88.4271 227.71 88.4271 217.694C88.4271 209.001 91.5727 197.412 97.6149 191.37C100.927 187.975 104.9 186.071 109.619 186.071C115.248 186.071 118.973 188.803 121.292 192.694L126.176 172.329H143.561L128.906 232.345H111.607L112.765 227.627Z" fill="#E81A03"/>
<path fill-rule="evenodd" clip-rule="evenodd" d="M136.685 221.584C136.685 219.515 136.934 217.446 137.596 214.879L144.219 187.147H161.602L155.644 211.816C155.395 213.224 155.229 214.216 155.229 214.961C155.229 216.866 156.139 218.109 158.374 218.109C161.272 218.109 162.845 216.12 163.756 212.395L169.882 187.147H187.183L176.255 232.346H158.872L160.196 226.966C157.464 230.359 153.16 233.422 147.862 233.422C140.577 233.422 136.685 228.787 136.685 221.584Z" fill="#E81A03"/>
<path fill-rule="evenodd" clip-rule="evenodd" d="M180.307 226.303L187.758 215.127C191.401 218.356 197.278 221.088 201.251 221.088C202.99 221.088 203.735 220.342 203.735 219.433C203.735 218.024 202.411 217.528 198.024 215.293C191.566 211.982 187.428 208.753 187.428 202.297C187.428 193.356 194.38 186.071 206.549 186.071C213.917 186.071 220.375 188.223 225.341 191.949L217.891 203.124C214.745 200.89 210.193 198.405 206.3 198.405C204.562 198.405 203.651 198.902 203.651 199.979C203.651 201.137 204.562 201.551 209.117 203.703C215.242 206.766 220.044 209.913 220.044 217.114C220.044 224.978 214.496 233.422 201.251 233.422C192.974 233.422 185.689 230.69 180.307 226.303Z" fill="#E81A03"/>
<path fill-rule="evenodd" clip-rule="evenodd" d="M224.513 222.412C224.513 220.509 224.761 218.853 225.339 216.784L229.148 200.641H224.843L228.154 187.148H232.542L235.191 176.055H252.493L249.843 187.148H258.536L255.142 200.641H246.449L243.47 213.389C243.222 214.63 243.056 215.624 243.056 216.369C243.056 218.025 244.132 218.853 246.2 218.853C247.525 218.853 248.602 218.604 250.837 218.025L247.359 232.015C244.462 232.925 241.731 233.339 238.501 233.339C229.478 233.339 224.513 229.781 224.513 222.412Z" fill="#E81A03"/>
<path fill-rule="evenodd" clip-rule="evenodd" d="M262.175 187.147H279.478L277.491 195.592C281.051 189.629 285.52 186.154 291.563 186.485L286.844 205.608H285.438C277.821 205.608 274.013 209.663 271.779 218.356L268.55 232.345H251.165L262.175 187.147Z" fill="#E81A03"/>
<path fill-rule="evenodd" clip-rule="evenodd" d="M292.223 187.147H309.607L310.27 210.822L321.776 187.147H339.739L314.905 230.939C308.863 241.369 303.564 245.094 294.458 245.094C289.905 245.094 285.848 244.017 282.455 241.865L288.25 229.283C290.568 230.939 292.72 231.601 294.375 231.601C295.286 231.601 296.03 231.435 296.776 231.021L292.223 187.147Z" fill="#E81A03"/>
<path fill-rule="evenodd" clip-rule="evenodd" d="M27.3241 174.36H45.1335L30.968 232.346H13.0751L27.3241 174.36Z" fill="#E81A03"/>
<path fill-rule="evenodd" clip-rule="evenodd" d="M265.899 255.688H10.0429L12.4033 244.229H268.26L265.899 255.688Z" fill="#E81A03"/>
</g>
<defs>
<clipPath id="clip0_115_2">
<rect width="469.799" height="436.634" fill="white"/>
</clipPath>
</defs>
</svg>
