<svg xmlns="http://www.w3.org/2000/svg" version="1.1" xmlns:xlink="http://www.w3.org/1999/xlink" width="50" height="50" x="0" y="0" viewBox="0 0 35 35" style="enable-background:new 0 0 512 512" xml:space="preserve" class=""><g transform="matrix(1.2999999999999996,0,0,1.2999999999999996,-5.249999713897683,-5.249614048004123)"><path d="M28.814 30.064a1.247 1.247 0 0 1-.884-.367L5.3 7.07A1.249 1.249 0 0 1 7.07 5.3L29.7 27.93a1.251 1.251 0 0 1-.884 2.134z" fill="#DDDDDD" opacity="1" data-original="#000000" class=""></path><path d="M6.186 30.064A1.251 1.251 0 0 1 5.3 27.93L27.93 5.3a1.25 1.25 0 0 1 1.77 1.77L7.07 29.7a1.247 1.247 0 0 1-.884.364z" fill="#DDDDDD" opacity="1" data-original="#000000" class=""></path></g></svg>