<?xml version="1.0" encoding="UTF-8" standalone="no"?>
<!-- Created with Inkscape (http://www.inkscape.org/) -->
<svg xmlns="http://www.w3.org/2000/svg" xmlns:svg="http://www.w3.org/2000/svg" width="215.46909mm" height="54.905502mm" viewBox="0 0 215.46908 54.905504" version="1.1" id="svg837">
  <defs id="defs834"></defs>
  <g id="layer1" transform="translate(6.0788052,-82.864918)">
    <g id="g1360" transform="matrix(0.35277778,0,0,0.35277778,-46.958271,5.3809295)">
      <path d="m 258.5856,331.6323 c 0,-3.005 1.063,-5.5709 3.189,-7.6969 2.1231,-2.1229 4.6922,-3.189 7.6972,-3.189 h 21.8729 c 3.005,0 5.573,1.0661 7.7001,3.189 2.1228,2.126 3.1858,4.6919 3.1858,7.6969 v 32.7591 c 0,3.0079 -1.063,5.5741 -3.1858,7.7001 -2.1271,2.1228 -4.6951,3.1858 -7.7001,3.1858 h -43.645 c -3.0081,0 -5.574,-1.063 -7.6969,-3.1858 -2.126,-2.126 -3.189,-4.6922 -3.189,-7.7001 v -10.887 c 0,-3.0339 1.063,-5.6251 3.1949,-7.7681 2.13,-2.1418 4.7019,-3.215 7.7171,-3.215 h 21.8199 c 3.015,0 5.5871,1.0732 7.7171,3.215 2.1288,2.143 3.1949,4.7342 3.1949,7.7681 h -32.758 v 10.887 h 43.645 v -32.7591 z" style="fill:#ed2e2e;fill-rule:evenodd" id="path2"></path>
      <path d="m 322.9235,375.277 c -3.0081,0 -5.574,-1.063 -7.6969,-3.1858 -2.1262,-2.126 -3.1892,-4.6922 -3.1892,-7.7001 V 331.632 c 0,-3.005 1.063,-5.5701 3.1892,-7.6969 2.1229,-2.1232 4.6888,-3.189 7.6969,-3.189 z" style="fill:#ed2e2e;fill-rule:evenodd" id="path4"></path>
      <path d="m 365.3888,342.3963 c -3.005,0 -5.574,1.063 -7.6972,3.1861 -2.126,2.126 -3.189,4.695 -3.189,7.7001 h 21.7752 c 3.005,0 5.5899,-1.063 7.746,-3.1862 2.158,-2.126 3.2368,-4.6919 3.2368,-7.7 z m -21.7721,-10.9829 v 43.6408 c -3.0089,0 -5.574,-1.063 -7.6969,-3.1858 -2.1262,-2.126 -3.1892,-4.6911 -3.1892,-7.7001 v -32.7549 c 0,-3.0081 1.063,-5.574 3.1892,-7.7 2.1229,-2.1231 4.688,-3.1861 7.6969,-3.1861 h 43.6439 c 3.0062,0 5.5741,1.063 7.7012,3.1861 2.122,2.126 3.1859,4.6919 3.1859,7.7 z" style="fill:#ed2e2e;fill-rule:evenodd" id="path6"></path>
      <path d="m 416.4912,331.4132 c 0,-3.0079 1.063,-5.5738 3.189,-7.7001 2.1229,-2.1228 4.6919,-3.1858 7.6969,-3.1858 h 21.873 c 3.005,0 5.5732,1.063 7.7,3.1858 2.1232,2.1263 3.1862,4.6922 3.1862,7.7001 v 32.7551 c 0,3.009 -1.063,5.5741 -3.1862,7.7001 -2.1268,2.1228 -4.695,3.1858 -7.7,3.1858 h -43.6448 c -3.0081,0 -5.574,-1.063 -7.6972,-3.1858 -2.1259,-2.126 -3.1889,-4.6911 -3.1889,-7.7001 v -10.8861 c 0,-3.0339 1.063,-5.622 3.1949,-7.7678 2.1302,-2.1421 4.7021,-3.2151 7.717,-3.2151 h 21.82 c 3.0152,0 5.5871,1.073 7.717,3.2151 2.1291,2.1458 3.195,4.7339 3.195,7.7678 h -32.7578 v 10.8861 h 43.6448 v -32.7551 z" style="fill:#ed2e2e;fill-rule:evenodd" id="path8"></path>
      <path d="m 554.5566,331.6323 h -43.645 v 43.645 c -3.0079,0 -5.5738,-1.063 -7.6969,-3.1858 -2.126,-2.126 -3.189,-4.6922 -3.189,-7.7001 v -32.7591 c 0,-3.005 1.063,-5.5709 3.189,-7.6969 2.1231,-2.1229 4.689,-3.189 7.6969,-3.189 h 43.645 c 3.005,0 5.5741,1.0661 7.7,3.189 2.1232,2.126 3.1862,4.6919 3.1862,7.6969 v 10.889 c 0,3.005 -1.063,5.574 -3.1862,7.6972 -2.1259,2.126 -4.695,3.189 -7.7,3.189 h -32.7589 c 0,-3.0082 1.0639,-5.5732 3.1899,-7.7001 2.1231,-2.1231 4.691,-3.1861 7.6972,-3.1861 h 21.8718 z" style="fill:#ed2e2e;fill-rule:evenodd" id="path10"></path>
      <path d="m 586.136,375.277 c -3.0081,0 -5.5741,-1.063 -7.6972,-3.1858 -2.126,-2.126 -3.189,-4.6922 -3.189,-7.7001 V 331.632 c 0,-3.005 1.063,-5.5701 3.189,-7.6969 2.1231,-2.1232 4.6891,-3.189 7.6972,-3.189 z" style="fill:#ed2e2e;fill-rule:evenodd" id="path12"></path>
      <path d="m 650.4737,320.7478 c 3.005,0 5.574,1.063 7.7,3.1859 2.1229,2.126 3.1858,4.6922 3.1858,7.7 v 32.7572 c 0,3.0078 -1.0629,5.5737 -3.1858,7.7 -2.126,2.1229 -4.695,3.1859 -7.7,3.1859 h -43.6451 c -3.0081,0 -5.574,-1.063 -7.6969,-3.1859 -2.126,-2.1263 -3.189,-4.6922 -3.189,-7.7 v -32.7572 c 0,-3.0078 1.063,-5.574 3.189,-7.7 2.1229,-2.1229 4.6888,-3.1859 7.6969,-3.1859 v 43.6431 h 43.6451 z" style="fill:#ed2e2e;fill-rule:evenodd" id="path14"></path>
      <path d="m 714.7144,353.5033 h -32.6619 c -3.0082,0 -5.5741,-1.063 -7.6972,-3.1862 -2.126,-2.126 -3.189,-4.6919 -3.189,-7.7 v -10.9828 c 0,-3.009 1.063,-5.5741 3.189,-7.7001 2.1231,-2.1231 4.689,-3.1861 7.6972,-3.1861 h 33.7189 c 3.005,0 5.5741,1.063 7.7,3.1861 2.1229,2.126 3.1859,4.6911 3.1859,7.7001 h -44.6048 v 10.8859 h 32.6619 c 3.005,0 5.5899,1.0729 7.7451,3.215 2.1588,2.1458 3.238,4.7339 3.238,7.7681 v 10.8859 c 0,3.0081 -1.0792,5.574 -3.238,7.7 -2.1552,2.1229 -4.7401,3.1859 -7.7451,3.1859 h -48.246 c 0,-3.0079 1.063,-5.5738 3.189,-7.7001 2.1229,-2.1228 4.6919,-3.1858 7.6969,-3.1858 h 37.3601 z" style="fill:#ed2e2e;fill-rule:evenodd" id="path16"></path>
      <path d="m 181.4659,319.0518 c -11.931,-0.017 -21.6762,9.6991 -21.7451,21.6791 -0.0689,12.138 9.703,21.888 21.8781,21.826 12.0098,-0.061 21.5719,-9.728 21.543,-21.7829 -0.0281,-11.982 -9.7302,-21.7051 -21.676,-21.7222 z m 34.168,22.0221 c -0.087,18.6832 -15.448,33.9662 -34.1521,33.9812 -18.8881,0.0139 -34.204,-15.336 -34.1861,-34.2621 0.0181,-18.9601 15.2932,-34.132 34.2901,-34.0611 18.9669,0.0712 34.138,15.372 34.0481,34.342 z" style="fill:#023084;fill-rule:evenodd" id="path18"></path>
      <path d="m 232.8691,319.0306 c 0.362,0.0479 0.758,0.0768 1.2328,0.07 1.7802,-0.0281 2.6442,-0.0482 2.9781,-0.0621 -0.438,-0.002 -0.887,-0.002 -1.3751,-0.002 -1.5908,0 -2.425,-0.003 -2.8358,-0.006 z" style="fill:#595651;fill-rule:evenodd" id="path20"></path>
      <path d="m 232.8691,319.0306 c -0.0252,-0.003 -0.0482,-0.008 -0.072,-0.0111 -0.3121,0.004 -0.326,0.008 0.072,0.0111 z" style="fill:#595651;fill-rule:evenodd" id="path22"></path>
      <path d="m 235.7052,319.0363 c 0.4881,0 0.9371,0 1.3751,0.002 1.0148,-0.0439 -3.189,-0.0328 -4.284,-0.019 0.0249,0.004 0.0479,0.008 0.0728,0.0111 0.411,0.004 1.245,0.006 2.8361,0.006 z" style="fill:#595651;fill-rule:evenodd" id="path24"></path>
      <path d="m 239.7757,319.0399 c -1.4998,-8e-4 -2.558,-0.002 -2.696,-0.002 -0.3339,0.0138 -1.1979,0.034 -2.9778,0.062 -0.4751,0.008 -0.8711,-0.0209 -1.2331,-0.07 -0.3979,-0.003 -0.3841,-0.007 -0.072,-0.011 -1.705,-0.2509 -2.2169,-1.2011 -2.2101,-3.4481 0.0941,-28.8519 0.0601,-57.704 0.0561,-86.5559 -9e-4,-7.6399 -1.7189,-9.326 -9.258,-9.3181 -16.9951,0.019 -33.9911,0.063 -50.985,-0.0569 -3.172,-0.0221 -6.164,1.4329 -8.102,3.943 -13.61,17.6368 -27.311,35.206 -41.0491,52.7439 -1.705,2.177 -2.6229,4.8631 -2.6098,7.6281 0.051,10.2801 0.0538,20.5599 0.0218,30.8401 h -2.3159 c -0.2571,0 -0.466,0.2089 -0.466,0.466 v 18.6449 h 0.008 c 0.001,0.6219 0.002,1.2928 0.003,2.0539 0.007,5.529 2.162,7.7261 7.621,7.7341 13.8461,0.0221 9.72,-0.0522 19.684,0.0479 0,-6.7748 -6.8581,-12.4438 -12.189,-12.5348 v -0.0292 c 0.0939,-0.004 0.1219,-0.007 0,-0.008 v -6.056 c 0.167,-10.6821 0.2189,-27.309 0.1911,-36.229 -0.013,-3.9921 0.7379,-5.8269 3.399,-9.0491 19.899,-24.0848 18.709,-22.492 34.4458,-44.562 2.0251,-2.8409 3.5481,-2.8848 7.399,-2.9109 11.421,-0.076 14.445,0.0221 25.9571,0.0221 14.0559,0 15.9029,-1.1713 15.8839,3.1048 -0.0629,14.777 -0.0569,29.5551 -0.0569,44.3341 h -0.0179 c 0,14.6611 -0.0122,29.3219 0.007,43.983 0.007,5.5281 2.162,7.7249 7.621,7.7329 13.8461,0.0229 16.5282,-0.051 26.4911,0.0482 0,-6.9271 -5.623,-12.5442 -12.5501,-12.5482 z" style="fill:#023084;fill-rule:evenodd" id="path26"></path>
    </g>
  </g>
  <style type="text/css" id="style2">
	.st0{fill:#FF2A2A;}
	.st1{fill:#270089;}
	.st2{fill:#ED1C24;}
</style>
</svg>
