<?xml version="1.0" encoding="UTF-8" standalone="no"?>
<!-- Created with Inkscape (http://www.inkscape.org/) -->
<svg xmlns="http://www.w3.org/2000/svg" xmlns:svg="http://www.w3.org/2000/svg" width="252.96812mm" height="171.14838mm" viewBox="0 0 252.96812 171.14838" version="1.1" id="svg837">
  <defs id="defs834"></defs>
  <g id="layer1" transform="translate(-1.8314732,-34.090862)">
    <g id="g70" transform="matrix(0.26458333,0,0,0.26458333,-58.636401,21.737466)">
      <g id="g14">
        <path class="st0" d="m 909.58,147.91 -89.65,34.32 c -19.09,-43.07 -62.23,-73.09 -112.37,-73.09 -67.87,0 -122.87,55 -122.87,122.84 0,13.26 2.11,26.06 6,38.02 l -93.05,35.65 24.57,-24.44 29.82,-29.75 c 0.55,-0.26 0.97,-0.49 1.39,-0.78 2.04,-1.33 2.72,-2.92 2.66,-6 -0.13,-10.44 0.71,-20.94 0.78,-31.44 0.06,-1.82 -1.2,-4.28 -2.59,-5.19 -0.16,-0.13 -0.42,-0.23 -0.62,-0.36 -7.84,-5.02 -15.85,-9.53 -23.76,-14.42 -6.84,-4.18 -8.26,-9.24 -5.02,-16.53 6.09,-13.77 12.32,-27.55 18.54,-41.29 2.53,-5.54 5.8,-8.1 10.63,-7.97 1.49,0.06 3.18,0.36 5.06,0.91 9.11,2.72 18.12,5.74 27.23,8.33 1.56,0.42 4.12,-0.13 5.25,-1.2 1.46,-1.26 2.82,-2.59 4.28,-3.92 6.71,-6.09 13.29,-12.38 19.74,-18.77 1.1,-1.04 1.94,-3.05 1.88,-4.47 0,-0.19 0,-0.36 -0.06,-0.55 -1.82,-8.62 -3.79,-17.15 -6.29,-25.6 -1.82,-6.09 -1.43,-11.34 3.08,-15.98 l 24.92,-9.53 26.32,-10.01 c 5.38,0.65 9.5,3.01 12.02,8.14 0.36,0.65 0.65,1.39 1,2.04 3.76,7.42 7.84,14.75 11.47,22.27 1.52,3.08 3.21,3.57 6.51,3.57 10.14,-0.16 20.29,0.19 30.43,0.84 3.18,0.19 5.06,-0.16 6.74,-3.11 4.47,-7.88 9.14,-15.46 13.77,-23.17 0.19,-0.26 0.29,-0.55 0.49,-0.81 3.86,-6.51 9.24,-8.33 16.04,-5.25 4.6,2.07 9.17,4.12 13.71,6.16 9.33,4.18 18.7,8.33 28.07,12.61 7.29,3.4 9.33,8.04 7,15.75 -2.53,8.39 -5.32,16.79 -7.75,25.31 -0.16,0.65 -0.36,1.26 -0.52,1.91 -0.42,1.59 0.42,4.28 1.62,5.57 3.27,3.66 6.58,7.29 9.95,10.86 4.05,4.34 8.17,8.62 12.25,12.9 1.2,1.17 3.57,2.11 5.12,1.75 l 24.41,1.26 19.25,0.97 z" id="path4"></path>
        <path class="st1" d="m 859.05,222.98 c 0.13,10.44 -0.71,20.94 -0.78,31.44 -0.06,1.81 1.2,4.31 2.59,5.22 0.16,0.1 0.42,0.23 0.58,0.36 7.84,4.99 15.88,9.53 23.79,14.42 6.81,4.15 8.26,9.24 5.02,16.53 -6.09,13.77 -12.32,27.52 -18.54,41.29 -2.53,5.54 -5.8,8.07 -10.63,7.97 -1.49,-0.06 -3.18,-0.39 -5.06,-0.91 -9.11,-2.72 -18.12,-5.74 -27.23,-8.33 -1.56,-0.42 -4.12,0.1 -5.25,1.2 -1.46,1.26 -2.85,2.59 -4.28,3.92 -6.71,6.09 -13.29,12.38 -19.74,18.77 -1.1,1.04 -1.94,3.01 -1.88,4.47 0,0.16 0,0.36 0.06,0.55 1.82,8.62 3.79,17.11 6.29,25.57 1.82,6.09 1.43,11.34 -3.08,16.01 l -24.92,9.53 -26.32,10.02 c -5.38,-0.68 -9.5,-3.01 -12.02,-8.14 -0.36,-0.68 -0.65,-1.39 -1.04,-2.07 -3.73,-7.42 -7.84,-14.71 -11.44,-22.27 -1.52,-3.08 -3.21,-3.57 -6.51,-3.57 -10.14,0.19 -20.29,-0.16 -30.43,-0.84 -3.21,-0.16 -5.06,0.19 -6.77,3.14 -4.44,7.84 -9.11,15.46 -13.74,23.17 -0.19,0.23 -0.29,0.55 -0.49,0.78 -3.86,6.51 -9.24,8.33 -16.04,5.25 -4.6,-2.04 -9.17,-4.08 -13.71,-6.16 -9.37,-4.15 -18.7,-8.33 -28.07,-12.61 -7.29,-3.37 -9.37,-8.04 -7,-15.75 2.53,-8.39 5.32,-16.79 7.71,-25.28 0.19,-0.68 0.39,-1.26 0.55,-1.94 0.42,-1.56 -0.42,-4.28 -1.62,-5.54 -3.27,-3.69 -6.58,-7.29 -9.95,-10.86 -4.05,-4.34 -8.17,-8.62 -12.25,-12.93 -1.23,-1.13 -3.57,-2.11 -5.15,-1.75 l -24.37,-1.26 -3.73,-0.19 h -0.03 l -15.49,-0.78 -29.75,-1.49 88.81,-34 c 19.97,40.84 61.91,68.94 110.42,68.94 67.87,0 122.87,-55 122.87,-122.87 0,-11.67 -1.62,-22.95 -4.67,-33.61 l 89.78,-34.39 -22.62,22.49 -29.82,29.75 c -0.55,0.23 -0.97,0.49 -1.39,0.78 -2.04,1.33 -2.72,2.89 -2.66,5.97 z" id="path6"></path>
        <g id="g10">
          <path class="st1" d="m 778.83,270.17 c -7.07,12.87 -17.76,23.92 -31.54,31.47 -38.63,21.13 -87.25,6.94 -108.38,-31.7 -21.16,-38.63 -6.94,-87.25 31.67,-108.38 12.15,-6.68 25.28,-9.82 38.21,-9.82 16.98,0 33.64,5.41 47.42,15.49 l 12.38,-25.31 c -32.28,-21.42 -75.1,-24.7 -111.4,-4.83 -52.12,28.52 -71.27,94.12 -42.75,146.24 19.58,35.75 56.56,55.97 94.67,55.97 17.47,0 35.2,-4.25 51.57,-13.22 19.45,-10.63 34.29,-26.45 43.79,-44.79 z" id="path8"></path>
        </g>
        <circle class="st0" cx="766.85999" cy="217.21001" r="39.98" id="circle12"></circle>
      </g>
      <g id="g68">
        <path class="st2" d="M 326.29,489.15 H 293.48 V 623.82 H 260.9 V 489.15 h -32.36 v -29.39 h 97.75 z" id="path16"></path>
        <path class="st2" d="M 431.79,623.82 H 343.61 V 459.76 h 88.18 v 29.39 h -55.6 v 36.91 h 54.91 v 29.39 h -54.91 v 38.51 h 55.6 z" id="path18"></path>
        <path class="st2" d="m 595.62,623.82 h -37.6 L 520.17,562.8 482.82,623.82 H 445.69 L 501.75,538.6 449.8,459.76 h 37.6 l 33.72,55.14 32.81,-55.14 h 37.83 l -51.72,79.3 z" id="path20"></path>
        <path class="st1" d="m 755.58,572.55 c -6.53,16.86 -16.6,30.16 -30.19,39.88 -13.6,9.72 -29.36,14.58 -47.28,14.58 -24.15,0 -44.47,-8.28 -60.95,-24.84 -16.48,-16.56 -24.72,-36.91 -24.72,-61.07 0,-23.7 8.24,-43.71 24.72,-60.04 16.48,-16.33 36.57,-24.5 60.27,-24.5 18.53,0 34.75,4.86 48.65,14.58 13.9,9.72 23.73,23.32 29.51,40.79 h -36 c -9.72,-16.71 -23.85,-25.06 -42.38,-25.06 -14.74,0 -27,5.28 -36.8,15.84 -9.8,10.56 -14.7,23.28 -14.7,38.17 0,14.89 4.86,27.8 14.58,38.74 10.03,11.39 22.41,17.09 37.14,17.09 18.68,0 32.58,-8.05 41.7,-24.15 h 36.45 z" id="path22"></path>
        <path class="st1" d="M 900.95,623.82 H 868.37 V 489.61 H 810.26 V 623.82 H 777.68 V 459.76 h 123.27 z" id="path24"></path>
        <path class="st1" d="M 1018.07,623.82 H 929.89 V 459.76 h 88.18 v 29.39 h -55.6 v 36.91 h 54.91 v 29.39 h -54.91 v 38.51 h 55.6 z" id="path26"></path>
        <path class="st1" d="m 1184.64,687.45 h -30.08 V 623.82 H 1046.1 V 459.76 h 32.58 v 134.67 h 58.11 V 459.76 h 32.58 v 134.67 h 15.27 z" id="path28"></path>
        <g id="g66">
          <path class="st1" d="m 290.41,685.78 h -7.87 V 653.35 H 268.5 v 32.43 h -7.87 v -39.64 h 29.79 v 39.64 z" id="path30"></path>
          <path class="st1" d="m 335.39,658.36 c 0,2.97 -0.72,5.54 -2.15,7.71 -1.43,2.17 -3.53,3.71 -6.29,4.63 -1.51,0.48 -3.28,0.77 -5.3,0.88 -0.15,0 -1.93,0 -5.36,0 v 14.21 h -7.87 v -39.64 h 11.95 c 2.38,0 4.38,0.2 6,0.61 2.86,0.73 5.08,2.11 6.66,4.13 1.57,2 2.36,4.5 2.36,7.47 z m -19.11,-5.12 v 11.23 h 4.09 c 4.87,0 7.3,-1.86 7.3,-5.59 0,-3.76 -2.36,-5.64 -7.08,-5.64 z" id="path32"></path>
          <path class="st1" d="m 390.28,665.85 c 0,5.8 -1.98,10.7 -5.95,14.7 -3.96,4 -8.85,6 -14.65,6 -5.73,0 -10.59,-2.02 -14.59,-6.06 -4,-4.04 -6,-8.92 -6,-14.64 0,-5.69 2.02,-10.52 6.06,-14.51 4.04,-3.98 8.9,-5.97 14.59,-5.97 5.73,0 10.58,1.98 14.56,5.95 3.99,3.96 5.98,8.81 5.98,14.53 z m -8.04,-0.05 c 0,-3.56 -1.21,-6.64 -3.63,-9.22 -2.42,-2.59 -5.4,-3.88 -8.92,-3.88 -3.49,0 -6.45,1.31 -8.89,3.94 -2.44,2.63 -3.66,5.7 -3.66,9.22 0,3.56 1.21,6.68 3.63,9.36 2.42,2.68 5.4,4.02 8.92,4.02 3.67,0 6.7,-1.34 9.09,-4.02 2.3,-2.58 3.46,-5.72 3.46,-9.42 z" id="path34"></path>
          <path class="st1" d="m 439.06,693.55 h -7.27 v -7.76 h -22.35 v 7.76 h -7.27 v -14.87 h 3.3 l 10.79,-32.54 h 8.65 l 10.79,32.54 h 3.36 z m -11.24,-14.87 -7.19,-22.92 -7.25,22.92 z" id="path36"></path>
          <path class="st1" d="m 487.9,685.78 h -8.59 l -3.14,-8.59 h -14.7 l -3.19,8.59 h -8.48 l 15.69,-39.64 h 6.77 z m -14.1,-15.31 -4.9,-14.59 -5.01,14.59 z" id="path38"></path>
          <path class="st1" d="m 548.41,646.14 -13.6,19.71 13.88,19.93 h -9.8 l -11.56,-18.83 v 18.83 h -7.71 v -18.83 l -11.56,18.83 h -9.8 l 13.82,-19.93 -13.6,-19.71 h 9.03 l 12.11,18.89 v -18.89 h 7.71 v 18.89 l 12.11,-18.89 z" id="path40"></path>
          <path class="st1" d="m 597.13,685.78 h -8.59 l -3.14,-8.59 h -14.7 l -3.19,8.59 h -8.48 l 15.69,-39.64 h 6.77 z m -14.09,-15.31 -4.9,-14.59 -5.01,14.59 z" id="path42"></path>
          <path class="st1" d="m 676.97,673.4 c -1.58,4.07 -4.01,7.29 -7.3,9.63 -3.29,2.35 -7.09,3.52 -11.42,3.52 -5.83,0 -10.74,-2 -14.73,-6 -3.98,-4 -5.97,-8.92 -5.97,-14.75 0,-5.73 1.99,-10.56 5.97,-14.51 3.99,-3.95 8.84,-5.92 14.56,-5.92 4.48,0 8.4,1.17 11.76,3.53 3.36,2.35 5.73,5.63 7.13,9.85 h -8.7 c -2.35,-4.04 -5.76,-6.06 -10.24,-6.06 -3.56,0 -6.52,1.28 -8.89,3.83 -2.37,2.55 -3.55,5.62 -3.55,9.22 0,3.6 1.17,6.72 3.52,9.36 2.42,2.75 5.42,4.13 8.97,4.13 4.51,0 7.87,-1.94 10.08,-5.83 z" id="path44"></path>
          <path class="st1" d="m 723.11,685.78 h -7.87 V 653.35 H 701.2 v 32.43 h -7.87 v -39.64 h 29.79 v 39.64 z" id="path46"></path>
          <path class="st1" d="m 762.42,685.78 h -21.31 v -39.64 h 21.31 v 7.1 h -13.44 v 8.92 h 13.27 v 7.1 h -13.27 v 9.31 h 13.44 z" id="path48"></path>
          <path class="st1" d="m 813.68,693.55 h -7.27 v -7.76 H 780.2 v -39.64 h 7.87 v 32.54 h 14.04 v -32.54 h 7.87 v 32.54 h 3.69 v 14.86 z" id="path50"></path>
          <path class="st1" d="m 849.24,653.24 h -7.93 v 32.54 h -7.88 v -32.54 h -7.82 v -7.1 h 23.62 v 7.1 z" id="path52"></path>
          <path class="st1" d="m 885.75,685.78 h -21.31 v -39.64 h 21.31 v 7.1 h -13.44 v 8.92 h 13.27 v 7.1 h -13.27 v 9.31 h 13.44 z" id="path54"></path>
          <path class="st1" d="m 936.34,685.78 h -9.08 l -9.15,-14.75 -9.03,14.75 h -8.97 l 13.55,-20.59 -12.55,-19.05 h 9.08 l 8.15,13.32 7.93,-13.32 h 9.14 l -12.5,19.16 z" id="path56"></path>
          <path class="st1" d="m 981.49,685.78 h -7.87 v -16.57 h -14.65 v 16.57 h -7.87 v -39.64 h 7.87 V 662 h 14.65 v -15.86 h 7.87 z" id="path58"></path>
          <path class="st1" d="m 1031.71,685.78 h -7.87 v -26.26 l -17.51,26.26 h -6.78 v -39.64 h 7.87 v 26.18 l 17.52,-26.18 h 6.76 v 39.64 z" id="path60"></path>
          <path class="st1" d="m 1080.3,646.14 -14.54,19.67 14.73,19.97 h -9.55 l -12.75,-18.56 v 18.56 h -7.87 v -39.64 h 7.87 v 18.72 l 13.33,-18.72 z" id="path62"></path>
          <path class="st1" d="m 1127.12,685.78 h -7.87 v -26.26 l -17.51,26.26 h -6.78 v -39.64 h 7.87 v 26.18 l 17.52,-26.18 h 6.76 v 39.64 z" id="path64"></path>
        </g>
      </g>
    </g>
  </g>
  <style type="text/css" id="style2">
	.st0{fill:#FF2A2A;}
	.st1{fill:#270089;}
	.st2{fill:#ED1C24;}
</style>
</svg>
