<svg xmlns="http://www.w3.org/2000/svg" version="1.1" xmlns:xlink="http://www.w3.org/1999/xlink" width="100" height="100" x="0" y="0" viewBox="0 0 96 96" style="enable-background:new 0 0 512 512" xml:space="preserve" fill-rule="evenodd" class=""><g transform="matrix(-1.0000000000000009,2.449293598294706e-16,2.449293598294706e-16,1.0000000000000009,95.99965667724612,-4.973799150320701e-14)"><path d="M11.743 61.342H5a1.5 1.5 0 0 1-1.5-1.5V48.195c0-4.085 2.297-7.799 5.892-9.485 4.289-2.012 9.528-3.314 11.968-3.855a4.5 4.5 0 0 0 3.06-2.363c1.204-2.372 3.904-7.564 6.11-10.817 1.831-2.701 4.815-4.316 8.004-4.316h29.25a1.501 1.501 0 0 0 0-3h-29.25c-4.174 0-8.09 2.097-10.487 5.633-2.273 3.352-5.061 8.698-6.303 11.143v.001a1.503 1.503 0 0 1-1.034.79c-2.567.57-8.077 1.95-12.592 4.068C3.487 38.166.5 42.933.5 48.195v11.647a4.5 4.5 0 0 0 4.5 4.5h6.743a1.5 1.5 0 0 0 0-3zm31.884 0h-7.583a1.5 1.5 0 0 0 0 3h7.583a1.5 1.5 0 0 0 0-3z" fill="#118DA8" opacity="1" data-original="#000000" class=""></path><path d="M22.441 34.591h30.037a1.5 1.5 0 0 0 0-3H22.441a1.5 1.5 0 0 0 0 3zM23.782 49.303c-7.473 0-13.539 6.066-13.539 13.539 0 7.472 6.066 13.539 13.539 13.539 7.472 0 13.539-6.067 13.539-13.539 0-7.473-6.067-13.539-13.539-13.539zm0 3c5.816 0 10.539 4.722 10.539 10.539 0 5.816-4.723 10.539-10.539 10.539-5.817 0-10.539-4.723-10.539-10.539 0-5.817 4.722-10.539 10.539-10.539z" fill="#118DA8" opacity="1" data-original="#000000" class=""></path><path d="M23.782 56.567a6.277 6.277 0 0 0-6.275 6.275 6.277 6.277 0 0 0 6.275 6.274 6.277 6.277 0 0 0 6.274-6.274 6.277 6.277 0 0 0-6.274-6.275zm0 3a3.276 3.276 0 0 1 0 6.549 3.276 3.276 0 0 1 0-6.549zM57.374 35.76l8.106 8.106c.352.352.507.855.413 1.343l-.84 4.393a1.5 1.5 0 0 1-1.121 1.176l-4.86 1.175a1.498 1.498 0 0 1-1.413-.398c-1.831-1.83-5.37-5.37-7.734-7.711a3.483 3.483 0 0 0-5.866 1.744l-.001.003c-1.392 6.602.474 13.756 5.597 18.879 5.585 5.585 13.585 7.299 20.646 5.126l.011-.003a1.498 1.498 0 0 1 1.511.37l9.194 9.194a8.485 8.485 0 0 0 11.997 0l.001-.002a8.482 8.482 0 0 0 0-11.996c-3.116-3.117-6.921-6.922-8.912-8.937l-.007-.006a1.483 1.483 0 0 1-.347-1.548l.004-.014c2.51-7.239.875-15.602-4.902-21.38-5.387-5.386-13.02-7.172-19.9-5.372l-.009.002a3.5 3.5 0 0 0-1.567 5.857zm10.228 5.985-8.107-8.107a.501.501 0 0 1 .222-.836c5.882-1.536 12.408-.011 17.012 4.594 4.939 4.938 6.335 12.087 4.19 18.275a4.484 4.484 0 0 0 1.056 4.667c1.988 2.011 5.798 5.821 8.919 8.942a5.483 5.483 0 0 1 0 7.754l-.001.001a5.482 5.482 0 0 1-7.754 0l-9.195-9.194a4.5 4.5 0 0 0-4.535-1.109c-6.024 1.853-12.86.389-17.632-4.383-4.379-4.379-5.973-10.494-4.784-16.137a.484.484 0 0 1 .816-.241l.005.005c2.36 2.338 5.895 5.873 7.724 7.701a4.5 4.5 0 0 0 4.239 1.192l4.86-1.175a4.496 4.496 0 0 0 3.362-3.528l.841-4.394a4.501 4.501 0 0 0-1.238-4.027zM2 49.695h6.325a1.5 1.5 0 0 0 0-3H2a1.5 1.5 0 0 0 0 3zM46.759 16.338v16.274a1.5 1.5 0 0 0 3 0V16.338a1.501 1.501 0 0 0-3 0z" fill="#118DA8" opacity="1" data-original="#000000" class=""></path></g></svg>