<?xml version="1.0" encoding="UTF-8" standalone="no"?>
<svg xmlns:dc="http://purl.org/dc/elements/1.1/" xmlns:cc="http://creativecommons.org/ns#" xmlns:rdf="http://www.w3.org/1999/02/22-rdf-syntax-ns#" xmlns:svg="http://www.w3.org/2000/svg" xmlns="http://www.w3.org/2000/svg" viewBox="0 0 657.59998 519.54669" height="519.54669" width="657.59998" xml:space="preserve" id="svg2" version="1.1">
  <metadata id="metadata8"></metadata>
  <defs id="defs6"></defs>
  <g transform="matrix(1.3333333,0,0,-1.3333333,0,519.54667)" id="g10">
    <g transform="scale(0.1)" id="g12">
      <path id="path14" style="fill:#a81c22;fill-opacity:1;fill-rule:nonzero;stroke:none" d="m 3161.96,1572.02 c 14.93,-21.45 22.88,-34.73 32.27,-51.04 27.93,-45.95 36.45,-57.94 50.63,-80.37 0,-35.13 -0.96,-162.79 -0.96,-216.17 -134.08,0 -267.02,0 -403.07,0 0,32.17 0,63.54 0,98.26 -229.67,0 -456.27,0 -685.97,0 0,-33.42 0,-64.78 0,-99.08 -133.89,0 -264.78,0 -400,0 0,68.88 0,140.96 0,216.9 27.28,41.77 57.56,88.12 85.9,131.5 445.61,0 884.6,0 1321.2,0"></path>
      <path id="path16" style="fill:#a81c22;fill-opacity:1;fill-rule:nonzero;stroke:none" d="m 2240.17,2027.62 c 0,-75.22 0,-149.1 0,-224.92 19.22,0 35.46,0 55.27,0 0,75.22 0,149.1 0,224.92 -19.22,0 -35.47,0 -55.27,0 z m -111.1,-224.92 c 0,75.82 0,149.7 0,224.92 -19.81,0 -36.05,0 -55.27,0 0,-75.82 0,-149.7 0,-224.92 19.81,0 36.04,0 55.27,0 z m -221.64,224.92 c 0,-75.82 0,-149.7 0,-224.92 19.81,0 36.04,0 55.27,0 0,75.82 0,149.7 0,224.92 -19.81,0 -36.04,0 -55.27,0 z m -126.61,-348.1 c 0,51.34 -0.09,97.36 -0.09,156.12 -23.09,20.94 -49.24,49.63 -76.42,76.81 -21.76,21.76 -37.43,40.17 -68.97,76.39 0,35.98 0,86.9 0,136.1 9.06,9.05 21.08,21.93 27.73,28.58 50.3,0 86.28,-0.87 133.07,-0.87 51.56,0 103.67,0 155.58,0 51.9,0 103.38,0 155.29,0 51.9,0 103.67,0 155.58,0 55.37,0 110.74,0 166.11,0 51.9,0 104.26,0 156.16,0 51.91,0 103.67,0 155.59,0 51.9,0 103.67,0 155.57,0 51.91,0 103.38,0 155.29,0 51.58,0 103.59,0.87 152.66,0.87 9.82,-9.81 16.82,-16.36 27.5,-27.05 0,-40.43 0,-84.51 0,-133.73 -98.86,-34.86 -171.39,-58.84 -269.65,-91.01 -74.01,-24.23 -208.28,-65.84 -204.96,-65.84 0,0 -203.29,-0.25 -329.01,-0.25 0,-45.57 0,-106.32 0,-156.12 -217.5,0 -427.65,0 -647.03,0"></path>
      <path id="path18" style="fill:#a81c22;fill-opacity:1;fill-rule:nonzero;stroke:none" d="m 1883.08,2818.07 c 147.68,0 288.42,0 432.93,0 0,-185.75 0,-370.42 0,-553.16 -9.27,-9.26 -16.6,-16.59 -25.67,-25.66 -125.15,0 -252.05,0 -376.49,0 -30.1,17.62 -31.49,43.25 -31.3,72.31 1.08,165.76 0.53,331.54 0.53,506.51"></path>
      <path id="path20" style="fill:#a81c22;fill-opacity:1;fill-rule:nonzero;stroke:none" d="m 1759.87,3468.09 c 0,93.13 0,182.66 0,273.8 23.62,21.37 48.96,50.09 83.36,81.2 1.28,0.15 17.56,0 37.72,0 0,23.97 -0.24,45.73 -0.24,73.53 112.27,0 221.03,0 332.86,0 0.47,-24.4 0.18,-46.62 0.18,-74.42 16.13,0 36.3,0 51.12,0 18.93,-20.66 35.21,-38.42 54.06,-58.99 0,-22.91 0,-50.33 0,-82.46 -51.37,-55.35 -99.33,-115.59 -164.75,-186.36 0,53.97 0,127.89 0,176.09 -23.55,0 -39.84,0 -59.69,0 0,-66.02 0.13,-134.37 0.13,-203 -40.81,0 -58.48,0 -106.24,0 0,53.18 0,138.95 0,200.87 -19.68,0 -39.02,-0.84 -62.59,-0.84 0,-61.99 0,-129.06 0,-199.42 -51.05,0 -105.97,0 -165.92,0"></path>
      <path id="path22" style="fill:#a81c22;fill-opacity:1;fill-rule:nonzero;stroke:none" d="m 2839.69,2510.02 c -43.4,36.84 -69.13,58.48 -106.38,93.83 0,26.59 0.02,59.09 0.02,91.58 -26.91,0 -48.9,0 -76.82,0 0,31.09 -0.23,62.51 -0.23,97.11 0,13.14 -0.06,7.29 -0.06,24.87 147.46,0 321.16,0 471.8,0 0,-39.3 0,-84.91 0,-121.98 -32.07,0 -50.78,0 -78.7,0 0,-35.97 0,-62.91 0,-91.25 -29.6,-31.58 -71.64,-63.22 -97.15,-92.41 0,-43.69 -0.58,-58.78 -0.58,-95.92 v 0 c -16.67,-23.98 -35.69,-49.43 -57.2,-75.45 -13.49,18.59 -29.43,40.56 -54.7,75.36 0,12.48 0,59.65 0,94.26"></path>
      <path id="path24" style="fill:#a81c22;fill-opacity:1;fill-rule:nonzero;stroke:none" d="m 1693,3574.17 c -99.25,0 -180,-80.74 -180,-179.99 0,-99.26 80.75,-180.01 180,-180.01 v -117.9 c -164.53,0 -297.9,133.37 -297.9,297.9 0,164.53 133.37,297.91 297.9,297.91 v -117.91"></path>
      <path id="path26" style="fill:#a81c22;fill-opacity:1;fill-rule:nonzero;stroke:none" d="m 2529.7,3322.15 c 0,54.89 0,105.76 0,159.87 156.52,0 315.49,0 476.97,0 0,-50.02 1.07,-103.05 1.07,-159.87 -160.15,0 -314.8,0 -478.04,0 z m 365.05,-268.77 c -47.8,0 -86.56,38.75 -86.56,86.57 0,47.8 38.76,86.56 86.56,86.56 47.81,0 86.56,-38.76 86.56,-86.56 0,-47.82 -38.75,-86.57 -86.56,-86.57 z m -247.99,0 c -47.81,0 -86.56,38.75 -86.56,86.57 0,47.8 38.75,86.56 86.56,86.56 47.81,0 86.57,-38.76 86.57,-86.56 0,-47.82 -38.76,-86.57 -86.57,-86.57 z m -500.67,-7.02 c -52.54,0 -96.32,36.48 -108.12,85.4 -19.48,0 -42.41,0 -68.35,0 0,19.95 0,38.64 0,62.29 27.43,0 57.39,0.15 71.72,0.78 15.3,43.33 56.19,74.57 104.75,74.57 61.6,0 111.52,-49.93 111.52,-111.52 0,-61.59 -49.92,-111.52 -111.52,-111.52 z m 218.58,582.34 c -66.72,-76.41 -133.58,-152.97 -198.73,-227.57 -129.46,0 -253.91,0 -377.4,0 -8.29,-8.3 -15.64,-15.65 -26.61,-26.61 0,-151.76 0,-297.41 0,-445.14 372.86,0 1384.89,1.17 1468.94,1.17 0,231.79 0.12,466.57 0.12,698.15 -290.39,0 -576.93,0 -866.32,0"></path>
      <path id="path28" style="fill:#100f0d;fill-opacity:1;fill-rule:nonzero;stroke:none" d="M 866.242,912.27 H 1025.88 V 395.621 h 69.4 l 194.34,516.649 h 159.63 L 1249.71,383.91 1449.25,0 H 1289.62 L 1145.6,275.898 H 1025.88 V 1.30078 H 866.242 V 912.27"></path>
      <path id="path30" style="fill:#100f0d;fill-opacity:1;fill-rule:nonzero;stroke:none" d="m 1942.03,121.031 v 154.867 h -385.2 V 912.27 h 159.64 V 395.621 h 225.56 V 912.27 h 159.64 V 1.30078 H 1553.36 V 121.031 h 388.67"></path>
      <path id="path32" style="fill:#100f0d;fill-opacity:1;fill-rule:nonzero;stroke:none" d="m 3448.12,912.27 h 159.63 V 376.102 l 225.58,536.168 h 159.63 V 1.30078 H 3833.33 V 533.57 L 3609.49,1.30078 H 3448.12 V 912.27"></path>
      <path id="path34" style="fill:#100f0d;fill-opacity:1;fill-rule:nonzero;stroke:none" d="M 4360.8,792.539 V 395.621 h 225.56 V 792.539 Z M 4201.16,912.27 H 4746 V 275.898 H 4360.8 V 1.30078 H 4201.16 V 912.27"></path>
      <path id="path36" style="fill:#a81c22;fill-opacity:1;fill-rule:nonzero;stroke:none" d="m 3071.73,912.27 -59,-136.372 -87.23,-87.218 V 574.832 l -150.7,-142.801 -162.62,144.52 0.03,112.129 -87.22,87.218 -53.75,136.024 v 0.348 h -0.14 l -0.02,0.07 -155.2,0.988 c 0,-0.34 0,-0.719 0,-1.058 h -6.01 V 1.30078 H 2469.5 V 499.16 c 65.62,-60.64 121.7,-101.422 199.86,-167.789 0,-66.691 0,-157.601 0,-181.641 48.67,-67.0698 79.41,-109.4214 105.4,-145.23 41.48,50.1406 78.11,99.168 110.24,145.391 0,71.57 1.12,100.668 1.12,184.859 48.98,56.031 137.1,116.801 194.16,177.449 V 1.30078 h 159.64 V 912.27 h -168.19"></path>
      <path id="path38" style="fill:#231f20;fill-opacity:1;fill-rule:nonzero;stroke:none" d="M 416.086,1717.36 C 275.871,1699.28 137.539,1681.46 0,1663.73 9.28125,1536.34 18.4531,1410.47 27.5938,1284.98 H 909.637 c -9.227,69.91 -14.09,141.18 -14.09,213.61 0,424.45 163.603,810.63 431.073,1099.14 l -277.28,448.03 c -63.664,-75.75 -123.555,-147.01 -186.024,-221.34 -124.199,51.22 -251.363,103.67 -383.07,157.99 -127.223,-261.53 -252.98,-520.04 -380.023,-781.21 17.578,-10.83 30.156,-19.28 43.363,-26.6 97.148,-53.82 195.019,-106.39 291.012,-162.19 14.461,-8.41 30.691,-33.16 28.472,-47.66 -12.55,-82.2 -30.465,-163.58 -46.984,-247.39"></path>
      <path id="path40" style="fill:#231f20;fill-opacity:1;fill-rule:nonzero;stroke:none" d="m 4515.91,1717.36 c 140.22,-18.08 278.55,-35.9 416.09,-53.63 -9.28,-127.39 -18.45,-253.26 -27.6,-378.75 h -882.04 c 9.23,69.91 14.09,141.18 14.09,213.61 0,424.45 -163.59,810.63 -431.06,1099.14 l 277.27,448.03 c 63.66,-75.75 123.56,-147.01 186.03,-221.34 124.19,51.22 251.35,103.67 383.06,157.99 127.23,-261.53 252.98,-520.04 380.03,-781.21 -17.58,-10.83 -30.16,-19.28 -43.37,-26.6 -97.14,-53.82 -195.02,-106.39 -291,-162.19 -14.46,-8.41 -30.7,-33.16 -28.49,-47.66 12.56,-82.2 30.48,-163.58 46.99,-247.39"></path>
      <path id="path42" style="fill:none;stroke:#100f0d;stroke-width:100;stroke-linecap:butt;stroke-linejoin:miter;stroke-miterlimit:10;stroke-dasharray:none;stroke-opacity:1" d="M 42.5547,1126.94 H 4887.74"></path>
      <path id="path44" style="fill:#100f0d;fill-opacity:1;fill-rule:nonzero;stroke:none" d="M 634.582,174.57 H 238.605 V 74.8203 H 634.582 Z M 168,245.18 H 705.176 V 4.21094 H 168 V 245.18"></path>
      <path id="path46" style="fill:#100f0d;fill-opacity:1;fill-rule:nonzero;stroke:none" d="M 634.582,507.621 H 238.605 V 407.852 H 634.582 Z M 168,578.219 H 705.176 V 337.262 H 168 v 240.957"></path>
      <path id="path48" style="fill:#100f0d;fill-opacity:1;fill-rule:nonzero;stroke:none" d="M 634.582,840.672 H 238.605 V 740.91 H 634.582 Z M 168,911.27 H 705.176 V 670.309 H 168 V 911.27"></path>
    </g>
  </g>
</svg>
