<svg xmlns="http://www.w3.org/2000/svg" version="1.1" xmlns:xlink="http://www.w3.org/1999/xlink" width="50" height="50" x="0" y="0" viewBox="0 0 512 512" style="enable-background:new 0 0 512 512" xml:space="preserve" class=""><g><path fill="#191919" d="M256 0C114.615 0 0 114.615 0 256s114.615 256 256 256 256-114.615 256-256S397.385 0 256 0zm0 450.189c-107.076 0-194.189-87.113-194.189-194.189S148.924 61.811 256 61.811 450.189 148.924 450.189 256 363.076 450.189 256 450.189z" opacity="1" data-original="#eef5f6" class=""></path><path fill="#191919" d="M256 0c-6.936 0-13.807.276-20.604.817C367.147 11.31 470.793 121.551 470.793 256S367.147 500.69 235.396 511.183c6.797.541 13.668.817 20.604.817 141.385 0 256-114.615 256-256S397.385 0 256 0z" opacity="1" data-original="#deecf1" class=""></path><g fill="#FE76A8"><path d="M329.523 320.93a7.727 7.727 0 0 1-7.122-10.719l47.78-113.85a7.727 7.727 0 0 1 14.25 5.98l-47.78 113.85a7.731 7.731 0 0 1-7.128 4.739zM327.364 240.894c-12.284 0-22.277-11.051-22.277-24.635 0-13.583 9.993-24.635 22.277-24.635s22.278 11.051 22.278 24.635-9.994 24.635-22.278 24.635zm0-33.817c-3.699 0-6.824 4.205-6.824 9.182s3.125 9.182 6.824 9.182 6.825-4.205 6.825-9.182c0-4.976-3.126-9.182-6.825-9.182zM379.468 320.928c-12.284 0-22.278-11.051-22.278-24.635s9.994-24.635 22.278-24.635 22.277 11.051 22.277 24.635-9.994 24.635-22.277 24.635zm0-33.817c-3.699 0-6.825 4.205-6.825 9.182s3.126 9.182 6.825 9.182 6.824-4.205 6.824-9.182-3.125-9.182-6.824-9.182z" fill="#CD4650" opacity="1" data-original="#fe76a8" class=""></path></g><path fill="#CD4650" d="M253.53 323.103c-21.276 0-39.398-15.678-42.345-36.801a43.029 43.029 0 0 1-.412-5.953 7.726 7.726 0 1 1 15.452 0c0 1.282.089 2.564.264 3.815 1.88 13.481 13.456 23.486 27.045 23.486.187 0 .372-.002.559-.005 14.233-.288 25.96-11.635 26.696-25.833.393-7.575-2.259-14.769-7.466-20.254-5.211-5.489-12.242-8.511-19.798-8.511-9.908 0-14.201 1.588-19.184 3.83a29.43 29.43 0 0 0-1.126.53 7.738 7.738 0 0 1-8.083-.641 7.723 7.723 0 0 1-3.07-7.494l8.524-51.451a7.727 7.727 0 0 1 7.623-6.464h43.03a7.726 7.726 0 1 1 0 15.452H244.76l-5.314 32.073c3.926-.84 8.39-1.29 14.079-1.29 11.835 0 22.846 4.731 31.004 13.324 8.154 8.589 12.307 19.844 11.692 31.694-1.155 22.251-19.523 40.032-41.817 40.481-.291.009-.582.012-.874.012zM158.098 321.136c-21.76 0-23.296-.513-24.334-.859-2.65-.883-4.626-2.872-5.421-5.457-1.42-4.611.447-7.054 7.389-16.145 5.838-7.645 16.706-21.876 34.909-47.884 5.684-8.121 9.348-15.459 10.894-21.817l.447-3.5c-.242-11.69-9.827-21.124-21.574-21.124-10.29 0-19.194 7.313-21.173 17.387a7.726 7.726 0 0 1-15.163-2.977c3.398-17.304 18.68-29.862 36.336-29.862 20.42 0 37.032 16.612 37.032 37.031 0 .328-.021.655-.062.98l-.566 4.431a7.68 7.68 0 0 1-.137.766c-1.943 8.376-6.442 17.645-13.373 27.547-16.627 23.757-27.21 37.804-33.452 45.994 12.119.064 30.612-.069 44.622-.244l.099-.001a7.724 7.724 0 0 1 7.723 7.629 7.725 7.725 0 0 1-7.629 7.823c-16.17.201-27.955.282-36.567.282zM450.189 256H512C512 114.615 397.385 0 256 0v61.811c107.076 0 194.189 87.113 194.189 194.189z" opacity="1" data-original="#fe76a8" class=""></path><path fill="#CD4650" d="M256 0v3.299C377.793 23.007 470.793 128.643 470.793 256H512C512 114.615 397.385 0 256 0z" opacity="1" data-original="#fe5694" class=""></path><path fill="#FFFFFF" d="M479.004 232.821h-.023a7.727 7.727 0 0 1-7.654-6.671C458.09 130.182 381.818 53.91 285.85 40.673a7.727 7.727 0 0 1-6.671-7.654c0-4.268 3.459-7.738 7.726-7.738a7.76 7.76 0 0 1 1.512.148c102.441 14.336 183.828 95.727 198.156 198.17.096.484.146.984.146 1.496 0 4.267-3.447 7.726-7.715 7.726z" opacity="1" data-original="#ffffff" class=""></path></g></svg>