<svg width="128" height="110" viewBox="0 0 128 110" fill="none" xmlns="http://www.w3.org/2000/svg">
<path fill-rule="evenodd" clip-rule="evenodd" d="M18.6849 0.218952C12.8838 2.83026 7.12218 5.36244 1.40003 8.1419C0.166813 8.73538 -0.34613 10.209 0.245816 11.4355C0.837763 12.6719 2.31747 13.1865 3.54083 12.593C9.23338 9.83331 14.9456 7.32097 20.7072 4.72945C21.9503 4.16564 22.503 2.70168 21.9506 1.46527C21.3882 0.218962 19.928 -0.344852 18.6849 0.218952Z" fill="#CD4650"/>
<path fill-rule="evenodd" clip-rule="evenodd" d="M114.032 56.8709C116.725 73.6861 119.892 90.4518 122.398 107.297C122.605 108.642 123.858 109.572 125.2 109.374C126.552 109.176 127.479 107.91 127.282 106.565C124.766 89.7001 121.599 72.9145 118.896 56.0795C118.679 54.7343 117.416 53.8143 116.074 54.0319C114.723 54.2495 113.815 55.5158 114.032 56.8709Z" fill="#CD4650"/>
<path fill-rule="evenodd" clip-rule="evenodd" d="M59.1593 38.4354C50.7339 56.7244 43.2357 75.4288 35.205 93.886C34.6624 95.1422 35.2346 96.5963 36.4777 97.1403C37.7306 97.6844 39.1807 97.1205 39.7332 95.8643C47.7442 77.4368 55.2224 58.7621 63.6379 40.5126C64.2102 39.2663 63.6678 37.8023 62.4346 37.2286C61.1915 36.6549 59.7315 37.1989 59.1593 38.4354Z" fill="#CD4650"/>
</svg>
