<?xml version="1.0" encoding="UTF-8" standalone="no"?>
<svg xmlns:inkscape="http://www.inkscape.org/namespaces/inkscape" xmlns:sodipodi="http://sodipodi.sourceforge.net/DTD/sodipodi-0.dtd" xmlns="http://www.w3.org/2000/svg" xmlns:svg="http://www.w3.org/2000/svg" width="87" height="87" viewBox="0 0 19.994253 19.994254" version="1.1" id="svg358" sodipodi:docname="РТС трак.svg">
  <defs id="defs355"></defs>
  <g id="layer1" transform="translate(-98.594422,-184.3025)">
    <path id="path49159-8" style="color:#000000;fill:#00418c;fill-opacity:1;stroke-width:0.868607;stroke-linecap:round;-inkscape-stroke:none" d="m 108.59174,184.37499 c -3.36557,0 -6.25907,1.95758 -7.84976,4.82485 h 3.98548 c 1.04882,-1.00837 2.40688,-1.60649 3.86428,-1.60649 1.4574,0 2.81546,0.59812 3.86428,1.60649 h 3.98502 c -1.59069,-2.86727 -4.48374,-4.82485 -7.8493,-4.82485 z m -7.8493,15.02577 c 1.59078,2.86679 4.48408,4.8235 7.8493,4.8235 3.36522,0 6.25807,-1.95671 7.84885,-4.8235 h -3.98457 c -1.04882,1.00875 -2.40688,1.60693 -3.86428,1.60693 -1.4574,0 -2.81546,-0.59818 -3.86428,-1.60693 z m 12.19072,0.43494 -0.0781,1.21194 1.30215,0.37615 -0.50946,0.37749 -0.95922,-0.28862 -0.01,0.19032 0.39006,0.52697 -0.41565,0.30792 -1.19309,-1.61187 0.41566,-0.30747 0.53998,0.7294 0.0359,-1.15583 z m -8.642,0.0126 1.40539,1.07503 -0.23565,0.30792 -0.49734,-0.38063 -0.98257,1.28465 -0.41071,-0.31421 0.98257,-1.28465 -0.49735,-0.38019 z m 2.19002,1.43413 0.82635,0.20423 c 0.12375,0.0306 0.22519,0.0673 0.30434,0.10997 0.0803,0.042 0.14763,0.0924 0.20244,0.15127 0.0657,0.0708 0.10903,0.15118 0.13017,0.24149 0.022,0.0905 0.0193,0.19236 -0.009,0.30477 -0.0215,0.0872 -0.0579,0.16851 -0.10907,0.24464 -0.051,0.0752 -0.11159,0.13421 -0.18224,0.17685 -0.0965,0.0575 -0.19788,0.094 -0.30343,0.10952 -0.1047,0.0157 -0.22782,0.006 -0.36988,-0.0292 l -0.3124,-0.0772 -0.1571,0.63424 -0.50183,-0.12433 z m 3.55142,0.17326 1.12755,1.81566 -0.52383,0.10727 -0.2168,-0.36941 -0.72851,0.14902 -0.0543,0.42508 -0.51081,0.10459 0.32364,-2.11281 z m -3.13937,0.3142 -0.14408,0.58308 0.14408,0.0354 c 0.0854,0.0211 0.15662,0.0333 0.21411,0.0364 0.0584,0.003 0.11008,-0.006 0.1553,-0.0283 0.0392,-0.0199 0.0704,-0.0473 0.0938,-0.0822 0.0245,-0.0355 0.0437,-0.0811 0.0574,-0.1369 0.0135,-0.0549 0.0105,-0.10563 -0.009,-0.15218 -0.0197,-0.0474 -0.0473,-0.0837 -0.0826,-0.10907 -0.0471,-0.0339 -0.0953,-0.0578 -0.14454,-0.0718 -0.049,-0.0148 -0.11471,-0.0329 -0.1975,-0.0534 z m 2.94411,0.24957 -0.0974,0.75365 0.48297,-0.0988 z M 99.360898,189.54781 c -0.385618,0 -0.700653,0.31673 -0.700653,0.70235 v 8.10079 c 0,0.38562 0.315035,0.70065 0.700653,0.70065 H 117.8222 c 0.38562,0 0.70065,-0.31503 0.70065,-0.70065 v -8.10079 c 0,-0.38562 -0.31503,-0.70235 -0.70065,-0.70235 z m 0,0.34439 H 117.8222 c 0.2006,0 0.35626,0.15736 0.35626,0.35796 v 8.10079 c 0,0.20059 -0.15566,0.35626 -0.35626,0.35626 H 99.360898 c -0.200605,0 -0.356259,-0.15567 -0.356259,-0.35626 v -8.10079 c 0,-0.2006 0.155654,-0.35796 0.356259,-0.35796 z m 0.147151,0.26283 c -0.147194,0 -0.265724,0.11853 -0.265724,0.26572 v 7.75864 c 0,0.1472 0.11853,0.26573 0.265724,0.26573 h 18.166931 c 0.14719,0 0.26572,-0.11853 0.26572,-0.26573 v -7.75864 c 0,-0.14719 -0.11853,-0.26572 -0.26572,-0.26572 z m 0.811551,0.30029 h 0.76845 2.16982 c 1.57482,0 2.92122,1.21702 2.92122,2.7686 0,1.55158 -1.3464,2.76726 -2.92122,2.76726 h -1.39956 v 1.34345 0.77025 h -1.53871 v -0.77025 -2.88396 h 2.93827 c 0.8023,0 1.38251,-0.57157 1.38251,-1.22675 0,-0.65517 -0.58021,-1.22809 -1.38251,-1.22809 h -2.16982 -0.76845 z m 4.09455,0 h 3.08325 1.60829 3.44953 c -0.82538,0.28388 -1.53177,0.8312 -2.01899,1.54051 h -1.43054 v 6.10905 h -1.60829 v -6.10905 h -1.41078 c -0.32513,-0.70141 -0.93218,-1.25403 -1.67247,-1.54051 z m 9.43335,0.005 c 1.73425,0 3.20465,1.18346 3.65781,2.78296 h -1.71871 c -0.36605,-0.70222 -1.0935,-1.17467 -1.9391,-1.17467 -1.21752,0 -2.1936,0.97874 -2.1936,2.2138 0,1.23506 0.97608,2.2138 2.1936,2.2138 0.8456,0 1.57305,-0.47244 1.9391,-1.17468 h 1.71871 c -0.45316,1.59951 -1.92356,2.78297 -3.65781,2.78297 -2.09299,0 -3.80189,-1.72361 -3.80189,-3.82209 0,-2.09848 1.7089,-3.82209 3.80189,-3.82209 z"></path>
  </g>
</svg>
