<?xml version="1.0" encoding="UTF-8" standalone="no"?>
<!-- Created with Inkscape (http://www.inkscape.org/) -->
<svg xmlns="http://www.w3.org/2000/svg" xmlns:svg="http://www.w3.org/2000/svg" width="195.73399mm" height="45.9613mm" viewBox="0 0 195.73399 45.961301" version="1.1" id="svg837">
  <defs id="defs834"></defs>
  <g id="layer1" transform="translate(-18.943848,-82.116281)">
    <g id="g1039" transform="matrix(0.35277778,0,0,0.35277778,-31.8032,0.1605668)">
      <path d="m 295.5145,329.5936 c 0,2.4361 -0.8609,4.5159 -2.5821,6.2351 -1.7189,1.7209 -3.799,2.579 -6.2319,2.579 v -17.7072 h -17.7101 v 8.8931 c 0,2.4361 -0.8608,4.5159 -2.5798,6.2351 -1.7212,1.7209 -3.799,2.579 -6.2342,2.579 v -17.7072 h -17.629 v 35.3361 c -2.4358,0 -4.513,-0.8612 -6.2319,-2.5801 -1.7221,-1.7209 -2.5821,-3.799 -2.5821,-6.2339 v -26.5221 c 0,-2.4358 0.86,-4.5131 2.5821,-6.234 1.7189,-1.7189 3.7961,-2.5801 6.2319,-2.5801 h 44.1531 c 2.4329,0 4.513,0.8612 6.2319,2.5801 1.7212,1.7209 2.5821,3.7982 2.5821,6.234 z" style="fill:#ed2e2e;fill-rule:evenodd" id="path2"></path>
      <path d="m 338.7122,347.2223 c 0,2.4361 -0.8611,4.513 -2.582,6.2351 -1.719,1.7189 -3.799,2.5789 -6.232,2.5789 h -17.629 c -2.4361,0 -4.5161,-0.86 -6.235,-2.5789 -1.721,-1.7221 -2.579,-3.799 -2.579,-6.2351 v -26.521 c 0,-2.4361 0.858,-4.5142 2.579,-6.2351 1.7189,-1.7189 3.7989,-2.5801 6.235,-2.5801 h 35.3359 c 2.4361,0 4.513,0.8612 6.2342,2.5801 1.719,1.7209 2.5798,3.799 2.5798,6.2351 v 8.8141 c 0,2.4568 -0.8608,4.555 -2.5798,6.2889 -1.7212,1.7379 -3.7981,2.6039 -6.2342,2.6039 h -17.7069 c -2.4361,0 -4.5159,-0.866 -6.2351,-2.6039 -1.7218,-1.7339 -2.5798,-3.8321 -2.5798,-6.2889 h 26.5218 v -8.8141 h -35.3359 v 26.521 z" style="fill:#ed2e2e;fill-rule:evenodd" id="path4-2"></path>
      <path d="m 399.6982,338.4079 h -26.5209 c -2.4361,0 -4.5159,-0.858 -6.2351,-2.5801 -1.7218,-1.7189 -2.5798,-3.7989 -2.5798,-6.2339 v -8.8931 c 0,-2.4359 0.858,-4.5128 2.5798,-6.2348 1.7192,-1.7193 3.799,-2.579 6.2351,-2.579 h 35.335 c 2.4361,0 4.513,0.8597 6.2351,2.579 1.7189,1.722 2.5798,3.7989 2.5798,6.2348 h -44.1499 v 8.8931 h 26.5209 c 2.4151,0 4.487,0.86 6.2192,2.5821 1.7289,1.7189 2.5949,3.799 2.5949,6.2319 v 17.629 c -2.4149,0 -4.487,-0.8609 -6.2161,-2.5801 -1.732,-1.7221 -2.598,-3.799 -2.598,-6.2348 z" style="fill:#ed2e2e;fill-rule:evenodd" id="path6-2"></path>
      <path d="m 442.8962,320.7008 c 0,-2.4361 0.8609,-4.5131 2.5818,-6.2351 1.719,-1.719 3.797,-2.579 6.232,-2.579 h 17.71 c 2.433,0 4.5111,0.86 6.232,2.579 1.722,1.722 2.5821,3.799 2.5821,6.2351 v 26.5209 c 0,2.4361 -0.8601,4.5142 -2.5821,6.2351 -1.7209,1.7189 -3.799,2.5801 -6.232,2.5801 h -35.3378 c -2.4361,0 -4.5131,-0.8612 -6.232,-2.5801 -1.722,-1.7209 -2.5832,-3.799 -2.5832,-6.2351 v -8.814 c 0,-2.4568 0.8612,-4.5519 2.5852,-6.289 1.7269,-1.7351 3.8069,-2.6039 6.251,-2.6039 h 17.668 c 2.4409,0 4.523,0.8688 6.247,2.6039 1.7238,1.7371 2.5878,3.8322 2.5878,6.289 h -26.5238 v 8.814 H 469.42 v -26.5209 z" style="fill:#ed2e2e;fill-rule:evenodd" id="path8-4"></path>
      <path d="m 554.4166,320.2308 h -36.5871 v 36.587 c -2.522,0 -4.6729,-0.8909 -6.4519,-2.6711 -1.783,-1.7818 -2.6739,-3.9327 -2.6739,-6.4547 v -27.4612 c 0,-2.5189 0.8909,-4.6698 2.6739,-6.452 1.779,-1.7798 3.9299,-2.6739 6.4519,-2.6739 h 36.5871 c 2.5191,0 4.6729,0.8941 6.455,2.6739 1.7799,1.7822 2.6711,3.9331 2.6711,6.452 v 9.1281 c 0,2.52 -0.8912,4.6729 -2.6711,6.4531 -1.7821,1.7818 -3.9359,2.6728 -6.455,2.6728 h -27.4609 c 0,-2.522 0.8909,-4.6718 2.673,-6.4548 1.7799,-1.779 3.9328,-2.6711 6.4528,-2.6711 h 18.3351 z" style="fill:#ed2e2e;fill-rule:evenodd" id="path10"></path>
      <path d="m 580.8893,356.8178 c -2.5222,0 -4.6732,-0.8909 -6.4522,-2.6711 -1.783,-1.7818 -2.6739,-3.9327 -2.6739,-6.4547 v -27.4612 c 0,-2.5189 0.8909,-4.6698 2.6739,-6.452 1.779,-1.7798 3.93,-2.6739 6.4522,-2.6739 z" style="fill:#ed2e2e;fill-rule:evenodd" id="path12"></path>
      <path d="m 634.823,311.1063 c 2.5189,0 4.6729,0.8912 6.4548,2.6711 1.7801,1.7822 2.6711,3.9331 2.6711,6.4551 v 27.46 c 0,2.5209 -0.891,4.6721 -2.6711,6.4551 -1.7819,1.7787 -3.9359,2.6699 -6.4548,2.6699 h -36.587 c -2.522,0 -4.673,-0.8912 -6.452,-2.6699 -1.783,-1.783 -2.6742,-3.9342 -2.6742,-6.4551 v -27.46 c 0,-2.522 0.8912,-4.6729 2.6742,-6.4551 1.779,-1.7799 3.93,-2.6711 6.452,-2.6711 v 36.5862 h 36.587 z" style="fill:#ed2e2e;fill-rule:evenodd" id="path14"></path>
      <path d="m 688.6753,338.565 h -27.3798 c -2.522,0 -4.6732,-0.891 -6.4522,-2.6711 -1.783,-1.7819 -2.674,-3.9328 -2.674,-6.4551 v -9.2069 c 0,-2.522 0.891,-4.6721 2.674,-6.455 1.779,-1.7791 3.9302,-2.67 6.4522,-2.67 h 28.2659 c 2.5189,0 4.6721,0.8909 6.4551,2.67 1.779,1.7829 2.6699,3.933 2.6699,6.455 h -37.3909 v 9.1261 h 27.3798 c 2.5192,0 4.686,0.8989 6.4931,2.6949 1.809,1.7992 2.7141,3.968 2.7141,6.5121 v 9.1258 c 0,2.5223 -0.9051,4.6721 -2.7141,6.4551 -1.8071,1.779 -3.9739,2.6699 -6.4931,2.6699 h -40.4439 c 0,-2.5208 0.891,-4.6717 2.6731,-6.4539 1.7799,-1.7799 3.9328,-2.6711 6.4528,-2.6711 h 31.318 z" style="fill:#ed2e2e;fill-rule:evenodd" id="path16-4"></path>
      <path d="m 198.9013,315.6523 c -10.0012,-0.0139 -18.1712,8.13 -18.2291,18.1729 -0.0581,10.1761 8.1349,18.3492 18.3399,18.297 10.0692,-0.051 18.0842,-8.155 18.0601,-18.2599 -0.0241,-10.0451 -8.157,-18.1962 -18.1709,-18.21 z m 28.6429,18.4609 c -0.0739,15.6619 -12.95,28.474 -28.6299,28.4862 -15.834,0.0119 -28.673,-12.856 -28.658,-28.7212 0.0159,-15.895 12.82,-28.6141 28.7459,-28.554 15.9001,0.0601 28.6169,12.8872 28.542,28.789 z" style="fill:#ed2e2e;fill-rule:evenodd" id="path18-8"></path>
      <path d="m 241.953,292.8081 c 0.3042,0.04 0.635,0.0649 1.033,0.059 1.493,-0.0241 2.2172,-0.0411 2.497,-0.053 -0.3668,-10e-4 -0.7438,-10e-4 -1.152,-10e-4 -1.334,0 -2.0339,-0.002 -2.378,-0.005 z" style="fill:#023084;fill-rule:evenodd" id="path20-3"></path>
      <path d="m 241.953,292.8081 c -0.021,-0.003 -0.0399,-0.006 -0.0609,-0.009 -0.2611,0.003 -0.273,0.006 0.0609,0.009 z" style="fill:#023084;fill-rule:evenodd" id="path22-5"></path>
      <path d="m 244.3307,292.8129 c 0.4091,0 0.7849,0 1.1529,9e-4 0.8512,-0.036 -2.6739,-0.0269 -3.591,-0.015 0.0202,0.003 0.04,0.006 0.0601,0.009 0.345,0.003 1.044,0.005 2.378,0.005 z" style="fill:#023084;fill-rule:evenodd" id="path24-3"></path>
      <path d="m 247.7431,292.8161 c -1.258,-0.001 -2.145,-0.001 -2.2601,-0.002 -0.2801,0.0119 -1.004,0.0289 -2.497,0.053 -0.398,0.006 -0.7291,-0.019 -1.033,-0.0593 -0.3339,-0.003 -0.322,-0.006 -0.0609,-0.009 -1.429,-0.2112 -1.8581,-1.0072 -1.8522,-2.8911 0.0791,-24.186 0.0502,-25.547 0.0471,-49.733 -9e-4,-6.404 -1.4409,-7.818 -7.761,-7.8112 -14.2469,0.0162 -28.4941,0.0531 -42.7411,-0.0479 -2.658,-0.0178 -5.167,1.2011 -6.7909,3.3061 -11.41,14.7849 -22.894,29.512 -34.4109,44.2151 -1.429,1.8238 -2.1991,4.0759 -2.1881,6.3938 0.0411,8.229 0.0601,13.8362 0.038,20.376 h -1.9179 c -0.2571,0 -0.4652,0.2081 -0.4652,0.4652 v 15.5548 h 0.006 c 0.001,0.521 0.001,1.084 0.002,1.722 0.006,4.635 1.8128,6.4761 6.389,6.484 11.6068,0.0182 8.1479,-0.0439 16.5008,0.0391 0,-5.6789 -5.749,-10.4309 -10.2178,-10.508 v -0.0241 c 0.0788,-0.003 0.1029,-0.006 0,-0.007 v -3.4132 c 0.165,-8.7579 0.2169,-18.5301 0.1919,-26.5558 -0.01,-3.3472 0.6191,-4.8861 2.85,-7.5861 16.681,-20.19 15.6829,-18.8549 28.8751,-37.3561 1.698,-2.3808 2.975,-2.4191 6.2028,-2.44 9.574,-0.0638 12.109,0.0181 21.759,0.0181 11.7831,0 13.3311,-0.9811 13.316,2.6031 -0.053,12.3879 -0.0479,24.7759 -0.0479,37.165 h -0.015 c 0,12.2899 -0.01,1.7538 0.006,14.044 0.006,4.6349 1.8119,6.476 6.3881,6.4828 11.607,0.019 13.8549,-0.0428 22.2069,0.04 0,-5.8068 -4.7129,-10.516 -10.5199,-10.5188 z" style="fill:#023084;fill-rule:evenodd" id="path26-9"></path>
    </g>
  </g>
  <style type="text/css" id="style2">
	.st0{fill:#FF2A2A;}
	.st1{fill:#270089;}
	.st2{fill:#ED1C24;}
</style>
</svg>
