<?xml version="1.0" encoding="UTF-8" standalone="no"?>
<!-- Created with Inkscape (http://www.inkscape.org/) -->
<svg xmlns:inkscape="http://www.inkscape.org/namespaces/inkscape" xmlns:sodipodi="http://sodipodi.sourceforge.net/DTD/sodipodi-0.dtd" xmlns="http://www.w3.org/2000/svg" xmlns:svg="http://www.w3.org/2000/svg" version="1.1" id="svg2" width="1369.7067" height="680.14667" viewBox="0 0 1369.7067 680.14667" sodipodi:docname="СПЕЦАГРОМАШ(Logo).eps">
  <defs id="defs6"></defs>
  <g id="g8" inkscape:groupmode="layer" inkscape:label="ink_ext_XXXXXX" transform="matrix(1.3333333,0,0,-1.3333333,0,680.14667)">
    <g id="g10" transform="scale(0.1)">
      <path d="m 2473.18,3364.95 c -69.03,-113.72 -123.65,-248.8 -165.87,-404.73 l -212.55,-792.6 c -179.28,115.71 -297.96,317.34 -297.96,547.27 0,359.55 291.51,651.05 651.05,651.05 8.44,0 16.89,0 25.33,-0.99" style="fill:#515c65;fill-opacity:1;fill-rule:nonzero;stroke:none" id="path12"></path>
      <path d="m 3098.91,2714.89 c 0,-12.91 -0.5,-25.82 -1.49,-38.74 -4.97,-91.37 -29.3,-177.79 -68.53,-255.26 -87.41,-172.81 -249.3,-301.43 -443.97,-342.66 l 202.12,753.36 c 36.75,136.57 83.43,244.83 140.54,323.3 106.27,-115.71 171.33,-270.66 171.33,-440" style="fill:#515c65;fill-opacity:1;fill-rule:nonzero;stroke:none" id="path14"></path>
      <path d="m 3605.95,3611.77 h 116.2 c -3.47,-1 -6.45,-1.99 -9.92,-2.98 -144.52,-45.69 -287.55,-97.34 -428.58,-154.45 -31.78,43.21 -66.05,83.93 -102.3,121.18 118.19,24.33 259.72,36.25 424.6,36.25" style="fill:#334da8;fill-opacity:1;fill-rule:nonzero;stroke:none" id="path16"></path>
      <path d="m 3845.32,4050.77 c -5.47,-14.4 -4.97,-37.74 3.47,-49.16 34.76,-46.19 68.53,-93.37 100.32,-141.53 h -343.16 c -275.12,0 -494.63,-30.8 -665.46,-94.36 -382.89,228.94 -881.49,227.94 -1268.84,-42.71 -535.84,-374.45 -663.97,-1100.49 -289.53,-1636.34 147.5,-211.55 349.62,-359.54 573.1,-439 -43.21,-163.38 -64.57,-297.47 -64.57,-411.69 0,-163.38 49.66,-302.929 143.03,-407.218 -117.2,19.367 -232.42,50.16 -346.14,87.398 -16.89,5.461 -37.24,1.5 -44.69,2 -100.32,-87.418 -190.2,-163.39 -277.11,-242.359 -24.83,-22.34 -44.7,-27.309 -74.99,-12.41 -211.06,105.281 -400.766,241.351 -571.102,404.739 -20.363,19.86 -17.382,37.74 -8.445,60.58 44.695,111.74 88.895,223.98 130.61,336.7 5.464,14.9 1.488,38.24 -7.446,52.15 -82.441,132.6 -167.859,263.2 -249.304,396.3 -16.387,26.82 -31.782,41.71 -64.555,43.7 -116.211,6.46 -231.918,17.37 -348.125,24.33 -28.805,1.99 -42.211,13.41 -51.153,39.73 C 49.2227,2243.11 7.00781,2469.56 0.0585938,2702.47 -0.9375,2736.74 10.4844,2753.13 40.7773,2766.04 c 102.8007,43.7 204.6057,90.38 307.4027,133.59 32.777,13.9 47.183,32.77 54.629,70.02 28.308,144.51 61.082,288.03 95.847,431.06 8.438,34.76 8.938,59.59 -16.886,88.39 -77.969,86.42 -152.461,176.3 -229.434,263.71 -14.898,17.38 -17.879,31.28 -7.449,52.64 104.289,214.03 238.867,407.22 403.746,578.55 17.875,18.87 34.762,21.85 60.09,11.92 111.738,-45.69 223.968,-89.89 336.707,-131.61 14.89,-5.96 39.72,-2.48 52.64,6.96 129.61,93.36 260.22,185.24 406.72,252.28 23.83,10.92 31.28,27.81 32.77,53.13 7.95,117.2 18.88,234.9 25.33,352.59 1.5,32.78 15.4,45.69 44.7,55.62 221.48,73.5 449.43,111.25 683.33,116.22 27.81,0.49 40.73,-10.44 50.66,-34.27 48.17,-110.74 96.34,-221.49 146.99,-330.75 7.45,-15.39 28.81,-32.27 45.19,-34.26 156.93,-18.87 310.39,-52.64 459.37,-106.28 28.31,-10.42 46.19,-4.96 67.54,13.91 87.9,77.97 177.29,153.95 265.69,230.92 17.87,15.4 32.27,26.32 59.59,12.91 211.56,-103.79 403.25,-236.38 572.59,-401.25 20.37,-20.37 24.83,-36.75 14.4,-63.58 -44.19,-111.73 -86.9,-224.46 -127.62,-337.69" style="fill:#334da8;fill-opacity:1;fill-rule:nonzero;stroke:none" id="path18"></path>
      <path d="M 2514.21,635.742 2470.05,471.539 H 2093.01 L 2012.66,172.16 H 2389.7 L 2343.79,0 h -377.04 c -60.04,0 -102.74,6.74219 -128.03,20.3086 -25.32,13.543 -37.97,37.0625 -37.97,70.6211 0,21.1913 4.41,48.2503 13.23,81.2303 l 80.37,299.379 c 17.65,65.902 45.9,110.672 84.77,134.191 32.95,20.02 85.65,30.012 158.05,30.012 h 377.04" style="fill:#515c65;fill-opacity:1;fill-rule:nonzero;stroke:none" id="path20"></path>
      <path d="M 3187.04,635.742 3016.62,0 h -199.54 l 126.26,471.539 H 2728.76 L 2602.5,0 h -199.57 l 170.42,635.742 h 613.69" style="fill:#515c65;fill-opacity:1;fill-rule:nonzero;stroke:none" id="path22"></path>
      <path d="m 3799.85,635.742 -44.14,-164.203 h -339.09 l -22.06,-83.027 H 3703.6 L 3667.4,254.32 h -309.05 l -22.07,-82.16 h 339.08 L 3629.43,0 H 3090.8 l 170.41,635.742 h 538.64" style="fill:#515c65;fill-opacity:1;fill-rule:nonzero;stroke:none" id="path24"></path>
      <path d="M 4465.64,635.742 4341.12,172.16 h 60.04 L 4355.26,0 h -459.17 c -61.23,0 -104.34,6.74219 -129.34,20.3086 -25.05,13.543 -37.54,37.0625 -37.54,70.6211 0,21.1913 4.41,48.2503 13.24,81.2303 l 124.52,463.582 h 199.54 L 3942.02,172.16 h 199.56 l 124.49,463.582 h 199.57" style="fill:#515c65;fill-opacity:1;fill-rule:nonzero;stroke:none" id="path26"></path>
      <path d="m 4929.2,478.57 h -218.99 l -25.61,-97.09 h 218.99 z M 5168.49,635.742 4998.07,0 h -196.9 l 67.99,254.32 H 4650.17 L 4582.18,0 h -196.9 l 128.03,478.57 c 16.47,61.832 45.03,104.512 85.65,128.032 34.14,19.449 85.35,29.14 153.64,29.14 h 415.89" style="fill:#515c65;fill-opacity:1;fill-rule:nonzero;stroke:none" id="path28"></path>
      <path d="M 5774.21,635.742 5730.06,471.539 H 5398.05 L 5271.79,0 h -199.57 l 170.42,635.742 h 531.57" style="fill:#515c65;fill-opacity:1;fill-rule:nonzero;stroke:none" id="path30"></path>
      <path d="M 6186.58,471.539 H 5979.06 L 5956.1,384.09 h 207.52 z m 209.27,75.02 c 0,-20.02 -4.41,-46.797 -13.24,-80.36 -7.08,-25.89 -14.13,-51.789 -21.19,-77.687 -14.72,-54.172 -42.99,-93.02 -84.78,-116.532 -27.08,-15.339 -61.22,-22.988 -102.42,-22.988 H 5919.9 L 5852.8,0 h -196.92 l 170.42,635.742 h 429.15 c 42.97,0 74.47,-4.41 94.47,-13.23 30.61,-13.532 45.93,-38.852 45.93,-75.953" style="fill:#515c65;fill-opacity:1;fill-rule:nonzero;stroke:none" id="path32"></path>
      <path d="M 6851.46,471.539 H 6632.47 L 6552.11,172.16 h 218.98 z m 207.5,68.863 c 0,-19.453 -3.52,-42.382 -10.6,-68.863 l -80.34,-300.25 C 6950.34,104.172 6922.38,58.2891 6884.12,33.5586 6849.98,11.1484 6796.99,0 6725.2,0 h -219 c -48.27,0 -84.19,4.41016 -107.73,13.2305 -37.07,14.1211 -55.63,41.2383 -55.63,81.25 0,20.6015 4.12,46.2105 12.37,76.8085 l 80.36,300.25 c 17.05,64.16 45.32,108.293 84.75,132.441 34.14,21.2 86.25,31.762 156.3,31.762 h 219 c 48.25,0 84.16,-4.41 107.71,-13.23 37.1,-14.703 55.63,-42.102 55.63,-82.11" style="fill:#515c65;fill-opacity:1;fill-rule:nonzero;stroke:none" id="path34"></path>
      <path d="M 7883.67,635.742 7803.31,0 h -196.02 l 38.84,284.34 c 2.96,20.558 7.38,41.461 13.25,62.652 h -1.75 L 7481.92,0 h -166 l 9.7,346.992 h -1.75 c -4.12,-16.48 -11.2,-37.39 -21.19,-62.652 L 7190.53,0 H 6994.5 l 260.45,635.742 h 235.79 l -3.53,-254.262 c -0.59,-32.98 -4.42,-63 -11.5,-90.109 h 1.75 c 6.4,23.609 18.86,53.781 37.39,90.399 l 132.59,253.972 h 236.23" style="fill:#515c65;fill-opacity:1;fill-rule:nonzero;stroke:none" id="path36"></path>
      <path d="m 8405.55,478.57 h -218.97 l -25.6,-97.09 h 218.96 z M 8644.83,635.742 8474.41,0 h -196.89 l 67.99,254.32 H 8126.49 L 8058.56,0 H 7861.6 l 128.04,478.57 c 16.48,61.832 45.05,104.512 85.64,128.032 34.14,19.449 85.36,29.14 153.69,29.14 h 415.86" style="fill:#515c65;fill-opacity:1;fill-rule:nonzero;stroke:none" id="path38"></path>
      <path d="M 9594.02,635.742 9469.53,172.16 C 9451.24,103.289 9423.89,56.7891 9387.42,32.6914 9354.44,10.8594 9300.85,0 9226.7,0 h -481.23 c -60.05,0 -102.43,6.64063 -127.17,19.8906 -24.73,13.2305 -37.1,36.8985 -37.1,71.0391 0,21.1913 4.42,48.2503 13.24,81.2303 l 124.54,463.582 h 196.9 L 8791.39,172.16 h 147.43 l 124.54,463.582 h 187.16 L 9126.03,172.16 h 146.6 l 124.49,463.582 h 196.9" style="fill:#515c65;fill-opacity:1;fill-rule:nonzero;stroke:none" id="path40"></path>
      <path d="m 3063.07,1590.06 350.61,1305.59 h 1043.96 l 55.12,206.59 c 61.58,230.93 161.89,400.77 301.44,509.53 H 3605.86 c -315.85,0 -545.28,-43.7 -689.29,-131.11 -169.35,-102.8 -292.51,-297.96 -369.48,-585.01 L 2196.98,1590.06 c -38.74,-143.51 -58.11,-261.71 -58.11,-354.08 0,-146.5 55.13,-248.8 165.87,-307.898 110.25,-59.09 296.48,-88.891 558.19,-88.891 h 1930.91 l 200.63,750.869 h -1931.4" style="fill:#334da8;fill-opacity:1;fill-rule:nonzero;stroke:none" id="path42"></path>
      <path d="m 6585.62,2502.83 h -954.99 l 111.73,423.61 h 954.5 z m -658.51,1108.94 c -297.97,0 -520.95,-42.71 -669.93,-127.13 -177.29,-102.8 -301.94,-289.03 -373.45,-558.2 L 4526.17,1590.06 4372.72,1014.99 4325.54,839.191 h 858.64 l 295.98,1108.929 h 954.98 l -249.3,-933.13 -47.18,-175.799 h 858.65 L 7740.73,3611.77 H 5927.11" style="fill:#334da8;fill-opacity:1;fill-rule:nonzero;stroke:none" id="path44"></path>
      <path d="M 10272.8,3611.56 9665.37,839.391 h -854.75 c 0,0 356.65,1444.469 382.35,1536.899 L 8263.86,839.391 H 7539.98 L 7413.62,2388.98 6993.28,839.391 h -854.76 l 763.7,2772.169 H 8302.36 L 8286.93,2502.7 c -2.56,-143.8 -19.24,-274.69 -50.04,-392.74 h 7.61 c 27.8,103.01 82.16,234.39 163.1,394.05 l 578.04,1107.55 h 1287.16" style="fill:#334da8;fill-opacity:1;fill-rule:nonzero;stroke:none" id="path46"></path>
    </g>
  </g>
</svg>
