<svg width="957" height="647" viewBox="0 0 957 647" fill="none" xmlns="http://www.w3.org/2000/svg">
<g clip-path="url(#clip0_343_154)">
<path d="M681.04 101.22L591.39 135.54C572.3 92.47 529.16 62.45 479.02 62.45C411.15 62.45 356.15 117.45 356.15 185.29C356.15 198.55 358.26 211.35 362.15 223.31L269.1 258.96L293.67 234.52L323.49 204.77C324.04 204.51 324.46 204.28 324.88 203.99C326.92 202.66 327.6 201.07 327.54 197.99C327.41 187.55 328.25 177.05 328.32 166.55C328.38 164.73 327.12 162.27 325.73 161.36C325.57 161.23 325.31 161.13 325.11 161C317.27 155.98 309.26 151.47 301.35 146.58C294.51 142.4 293.09 137.34 296.33 130.05C302.42 116.28 308.65 102.5 314.87 88.76C317.4 83.22 320.67 80.66 325.5 80.79C326.99 80.85 328.68 81.15 330.56 81.7C339.67 84.42 348.68 87.44 357.79 90.03C359.35 90.45 361.91 89.9 363.04 88.83C364.5 87.57 365.86 86.24 367.32 84.91C374.03 78.82 380.61 72.53 387.06 66.14C388.16 65.1 389 63.09 388.94 61.67C388.94 61.48 388.94 61.31 388.88 61.12C387.06 52.5 385.09 43.97 382.59 35.52C380.77 29.43 381.16 24.18 385.67 19.54L410.59 10.01L436.91 0C442.29 0.65 446.41 3.01 448.93 8.14C449.29 8.79 449.58 9.53 449.93 10.18C453.69 17.6 457.77 24.93 461.4 32.45C462.92 35.53 464.61 36.02 467.91 36.02C478.05 35.86 488.2 36.21 498.34 36.86C501.52 37.05 503.4 36.7 505.08 33.75C509.55 25.87 514.22 18.29 518.85 10.58C519.04 10.32 519.14 10.03 519.34 9.77C523.2 3.26 528.58 1.44 535.38 4.52C539.98 6.59 544.55 8.64 549.09 10.68C558.42 14.86 567.79 19.01 577.16 23.29C584.45 26.69 586.49 31.33 584.16 39.04C581.63 47.43 578.84 55.83 576.41 64.35C576.25 65 576.05 65.61 575.89 66.26C575.47 67.85 576.31 70.54 577.51 71.83C580.78 75.49 584.09 79.12 587.46 82.69C591.51 87.03 595.63 91.31 599.71 95.59C600.91 96.76 603.28 97.7 604.83 97.34L629.24 98.6L648.49 99.57L681.04 101.22Z" fill="#FF2A2A"/>
<path d="M630.51 176.29C630.64 186.73 629.8 197.23 629.73 207.73C629.67 209.54 630.93 212.04 632.32 212.95C632.48 213.05 632.74 213.18 632.9 213.31C640.74 218.3 648.78 222.84 656.69 227.73C663.5 231.88 664.95 236.97 661.71 244.26C655.62 258.03 649.39 271.78 643.17 285.55C640.64 291.09 637.37 293.62 632.54 293.52C631.05 293.46 629.36 293.13 627.48 292.61C618.37 289.89 609.36 286.87 600.25 284.28C598.69 283.86 596.13 284.38 595 285.48C593.54 286.74 592.15 288.07 590.72 289.4C584.01 295.49 577.43 301.78 570.98 308.17C569.88 309.21 569.04 311.18 569.1 312.64C569.1 312.8 569.1 313 569.16 313.19C570.98 321.81 572.95 330.3 575.45 338.76C577.27 344.85 576.88 350.1 572.37 354.77L547.45 364.3L521.13 374.32C515.75 373.64 511.63 371.31 509.11 366.18C508.75 365.5 508.46 364.79 508.07 364.11C504.34 356.69 500.23 349.4 496.63 341.84C495.11 338.76 493.42 338.27 490.12 338.27C479.98 338.46 469.83 338.11 459.69 337.43C456.48 337.27 454.63 337.62 452.92 340.57C448.48 348.41 443.81 356.03 439.18 363.74C438.99 363.97 438.89 364.29 438.69 364.52C434.83 371.03 429.45 372.85 422.65 369.77C418.05 367.73 413.48 365.69 408.94 363.61C399.57 359.46 390.24 355.28 380.87 351C373.58 347.63 371.5 342.96 373.87 335.25C376.4 326.86 379.19 318.46 381.58 309.97C381.77 309.29 381.97 308.71 382.13 308.03C382.55 306.47 381.71 303.75 380.51 302.49C377.24 298.8 373.93 295.2 370.56 291.63C366.51 287.29 362.39 283.01 358.31 278.7C357.08 277.57 354.74 276.59 353.16 276.95L328.79 275.69L325.06 275.5H325.03L309.54 274.72L279.79 273.23L368.6 239.23C388.57 280.07 430.51 308.17 479.02 308.17C546.89 308.17 601.89 253.17 601.89 185.3C601.89 173.63 600.27 162.35 597.22 151.69L687 117.3L664.38 139.79L634.56 169.54C634.01 169.77 633.59 170.03 633.17 170.32C631.13 171.65 630.45 173.21 630.51 176.29Z" fill="#270089"/>
<path d="M550.29 223.48C543.22 236.35 532.53 247.4 518.75 254.95C480.12 276.08 431.5 261.89 410.37 223.25C389.21 184.62 403.43 136 442.04 114.87C454.19 108.19 467.32 105.05 480.25 105.05C497.23 105.05 513.89 110.46 527.67 120.54L540.05 95.23C507.77 73.81 464.95 70.53 428.65 90.4C376.53 118.92 357.38 184.52 385.9 236.64C405.48 272.39 442.46 292.61 480.57 292.61C498.04 292.61 515.77 288.36 532.14 279.39C551.59 268.76 566.43 252.94 575.93 234.6L550.29 223.48Z" fill="#270089"/>
<path d="M538.32 210.5C560.4 210.5 578.3 192.6 578.3 170.52C578.3 148.44 560.4 130.54 538.32 130.54C516.239 130.54 498.34 148.44 498.34 170.52C498.34 192.6 516.239 210.5 538.32 210.5Z" fill="#FF2A2A"/>
<path d="M97.75 442.46H64.94V577.13H32.36V442.46H0V413.07H97.75V442.46Z" fill="#ED1C24"/>
<path d="M203.25 577.13H115.07V413.07H203.25V442.46H147.65V479.37H202.56V508.76H147.65V547.27H203.25V577.13Z" fill="#ED1C24"/>
<path d="M367.08 577.13H329.48L291.63 516.11L254.28 577.13H217.15L273.21 491.91L221.26 413.07H258.86L292.58 468.21L325.39 413.07H363.22L311.5 492.37L367.08 577.13Z" fill="#ED1C24"/>
<path d="M527.04 525.86C520.51 542.72 510.44 556.02 496.85 565.74C483.25 575.46 467.49 580.32 449.57 580.32C425.42 580.32 405.1 572.04 388.62 555.48C372.14 538.92 363.9 518.57 363.9 494.41C363.9 470.71 372.14 450.7 388.62 434.37C405.1 418.04 425.19 409.87 448.89 409.87C467.42 409.87 483.64 414.73 497.54 424.45C511.44 434.17 521.27 447.77 527.05 465.24H491.05C481.33 448.53 467.2 440.18 448.67 440.18C433.93 440.18 421.67 445.46 411.87 456.02C402.07 466.58 397.17 479.3 397.17 494.19C397.17 509.08 402.03 521.99 411.75 532.93C421.78 544.32 434.16 550.02 448.89 550.02C467.57 550.02 481.47 541.97 490.59 525.87H527.04V525.86Z" fill="#270089"/>
<path d="M672.41 577.13H639.83V442.92H581.72V577.13H549.14V413.07H672.41V577.13Z" fill="#270089"/>
<path d="M789.53 577.13H701.35V413.07H789.53V442.46H733.93V479.37H788.84V508.76H733.93V547.27H789.53V577.13Z" fill="#270089"/>
<path d="M956.1 640.76H926.02V577.13H817.56V413.07H850.14V547.74H908.25V413.07H940.83V547.74H956.1V640.76Z" fill="#270089"/>
<path d="M61.8698 639.09H53.9999V606.66H39.9598V639.09H32.0898V599.45H61.8799V639.09H61.8698Z" fill="#270089"/>
<path d="M106.85 611.67C106.85 614.64 106.13 617.21 104.7 619.38C103.27 621.55 101.17 623.09 98.4099 624.01C96.8999 624.49 95.1299 624.78 93.1099 624.89C92.9599 624.89 91.1799 624.89 87.7499 624.89V639.1H79.8799V599.46H91.8299C94.2099 599.46 96.2099 599.66 97.8299 600.07C100.69 600.8 102.91 602.18 104.49 604.2C106.06 606.2 106.85 608.7 106.85 611.67ZM87.7399 606.55V617.78H91.8299C96.6999 617.78 99.1299 615.92 99.1299 612.19C99.1299 608.43 96.7699 606.55 92.0499 606.55H87.7399Z" fill="#270089"/>
<path d="M161.74 619.16C161.74 624.96 159.76 629.86 155.79 633.86C151.83 637.86 146.94 639.86 141.14 639.86C135.41 639.86 130.55 637.84 126.55 633.8C122.55 629.76 120.55 624.88 120.55 619.16C120.55 613.47 122.57 608.64 126.61 604.65C130.65 600.67 135.51 598.68 141.2 598.68C146.93 598.68 151.78 600.66 155.76 604.63C159.75 608.59 161.74 613.44 161.74 619.16ZM153.7 619.11C153.7 615.55 152.49 612.47 150.07 609.89C147.65 607.3 144.67 606.01 141.15 606.01C137.66 606.01 134.7 607.32 132.26 609.95C129.82 612.58 128.6 615.65 128.6 619.17C128.6 622.73 129.81 625.85 132.23 628.53C134.65 631.21 137.63 632.55 141.15 632.55C144.82 632.55 147.85 631.21 150.24 628.53C152.54 625.95 153.7 622.81 153.7 619.11Z" fill="#270089"/>
<path d="M210.52 646.86H203.25V639.1H180.9V646.86H173.63V631.99H176.93L187.72 599.45H196.37L207.16 631.99H210.52V646.86ZM199.28 631.99L192.09 609.07L184.84 631.99H199.28Z" fill="#270089"/>
<path d="M259.36 639.09H250.77L247.63 630.5H232.93L229.74 639.09H221.26L236.95 599.45H243.72L259.36 639.09ZM245.26 623.78L240.36 609.19L235.35 623.78H245.26Z" fill="#270089"/>
<path d="M319.87 599.45L306.27 619.16L320.15 639.09H310.35L298.79 620.26V639.09H291.08V620.26L279.52 639.09H269.72L283.54 619.16L269.94 599.45H278.97L291.08 618.34V599.45H298.79V618.34L310.9 599.45H319.87Z" fill="#270089"/>
<path d="M368.59 639.09H360L356.86 630.5H342.16L338.97 639.09H330.49L346.18 599.45H352.95L368.59 639.09ZM354.5 623.78L349.6 609.19L344.59 623.78H354.5Z" fill="#270089"/>
<path d="M448.43 626.71C446.85 630.78 444.42 634 441.13 636.34C437.84 638.69 434.04 639.86 429.71 639.86C423.88 639.86 418.97 637.86 414.98 633.86C411 629.86 409.01 624.94 409.01 619.11C409.01 613.38 411 608.55 414.98 604.6C418.97 600.65 423.82 598.68 429.54 598.68C434.02 598.68 437.94 599.85 441.3 602.21C444.66 604.56 447.03 607.84 448.43 612.06H439.73C437.38 608.02 433.97 606 429.49 606C425.93 606 422.97 607.28 420.6 609.83C418.23 612.38 417.05 615.45 417.05 619.05C417.05 622.65 418.22 625.77 420.57 628.41C422.99 631.16 425.99 632.54 429.54 632.54C434.05 632.54 437.41 630.6 439.62 626.71H448.43Z" fill="#270089"/>
<path d="M494.57 639.09H486.7V606.66H472.66V639.09H464.79V599.45H494.58V639.09H494.57Z" fill="#270089"/>
<path d="M533.88 639.09H512.57V599.45H533.88V606.55H520.44V615.47H533.71V622.57H520.44V631.88H533.88V639.09Z" fill="#270089"/>
<path d="M585.14 646.86H577.87V639.1H551.66V599.46H559.53V632H573.57V599.46H581.44V632H585.13V646.86H585.14Z" fill="#270089"/>
<path d="M620.7 606.55H612.77V639.09H604.89V606.55H597.07V599.45H620.69V606.55H620.7Z" fill="#270089"/>
<path d="M657.21 639.09H635.9V599.45H657.21V606.55H643.77V615.47H657.04V622.57H643.77V631.88H657.21V639.09Z" fill="#270089"/>
<path d="M707.8 639.09H698.72L689.57 624.34L680.54 639.09H671.57L685.12 618.5L672.57 599.45H681.65L689.8 612.77L697.73 599.45H706.87L694.37 618.61L707.8 639.09Z" fill="#270089"/>
<path d="M752.95 639.09H745.08V622.52H730.43V639.09H722.56V599.45H730.43V615.31H745.08V599.45H752.95V639.09Z" fill="#270089"/>
<path d="M803.17 639.09H795.3V612.83L777.79 639.09H771.01V599.45H778.88V625.63L796.4 599.45H803.16V639.09H803.17Z" fill="#270089"/>
<path d="M851.76 599.45L837.22 619.12L851.95 639.09H842.4L829.65 620.53V639.09H821.78V599.45H829.65V618.17L842.98 599.45H851.76Z" fill="#270089"/>
<path d="M898.58 639.09H890.71V612.83L873.2 639.09H866.42V599.45H874.29V625.63L891.81 599.45H898.57V639.09H898.58Z" fill="#270089"/>
</g>
<defs>
<clipPath id="clip0_343_154">
<rect width="956.1" height="646.86" fill="white"/>
</clipPath>
</defs>
</svg>
